<svg width="1244" height="277" viewBox="0 0 1244 277" fill="none" xmlns="http://www.w3.org/2000/svg">
<g filter="url(#filter0_d_2_35)">
<path d="M70.0215 49.942C68.3668 47.2167 66.0795 45.124 63.1595 43.664C60.3368 42.204 56.9788 41.474 53.0855 41.474C45.8828 41.474 40.1888 43.81 36.0035 48.482C31.9155 53.154 29.8715 59.432 29.8715 67.316C29.8715 76.1733 32.0615 82.938 36.4415 87.61C40.9188 92.1847 47.3915 94.472 55.8595 94.472C65.8848 94.472 73.0388 89.946 77.3215 80.894H48.5595V60.308H101.996V88.048C99.7568 93.4987 96.4475 98.6087 92.0675 103.378C87.7848 108.147 82.3342 112.089 75.7155 115.204C69.0968 118.221 61.5535 119.73 53.0855 119.73C42.7682 119.73 33.6188 117.54 25.6375 113.16C17.7535 108.683 11.6215 102.502 7.24151 94.618C2.95884 86.6367 0.817508 77.536 0.817508 67.316C0.817508 57.1933 2.95884 48.19 7.24151 40.306C11.6215 32.3247 17.7535 26.144 25.6375 21.764C33.5215 17.2867 42.6222 15.048 52.9395 15.048C65.8848 15.048 76.5915 18.1627 85.0595 24.392C93.5275 30.6213 98.7835 39.138 100.828 49.942H70.0215ZM193.076 77.098C193.076 79.3367 192.93 81.5753 192.638 83.814H138.472C138.764 88.2913 139.98 91.6493 142.122 93.888C144.36 96.0293 147.183 97.1 150.59 97.1C155.359 97.1 158.766 94.9587 160.81 90.676H191.324C190.058 96.3213 187.576 101.383 183.878 105.86C180.276 110.24 175.702 113.695 170.154 116.226C164.606 118.757 158.474 120.022 151.758 120.022C143.679 120.022 136.476 118.319 130.15 114.912C123.92 111.505 119.005 106.639 115.404 100.312C111.9 93.9853 110.148 86.5393 110.148 77.974C110.148 69.4087 111.9 62.0113 115.404 55.782C118.908 49.4553 123.774 44.5887 130.004 41.182C136.33 37.7753 143.582 36.072 151.758 36.072C159.836 36.072 166.99 37.7267 173.22 41.036C179.449 44.3453 184.316 49.1147 187.82 55.344C191.324 61.476 193.076 68.7273 193.076 77.098ZM163.876 69.944C163.876 66.44 162.708 63.7147 160.372 61.768C158.036 59.724 155.116 58.702 151.612 58.702C148.108 58.702 145.236 59.6753 142.998 61.622C140.759 63.4713 139.299 66.2453 138.618 69.944H163.876ZM253.112 94.618V119H240.702C219.776 119 209.312 108.634 209.312 87.902V60.892H199.238V37.094H209.312V17.238H238.074V37.094H252.966V60.892H238.074V88.34C238.074 90.5787 238.561 92.1847 239.534 93.158C240.605 94.1313 242.357 94.618 244.79 94.618H253.112ZM308.637 29.502C303.576 29.502 299.488 28.1393 296.373 25.414C293.356 22.5913 291.847 19.0873 291.847 14.902C291.847 10.6193 293.356 7.06666 296.373 4.244C299.488 1.42133 303.576 0.00999165 308.637 0.00999165C313.601 0.00999165 317.592 1.42133 320.609 4.244C323.724 7.06666 325.281 10.6193 325.281 14.902C325.281 19.0873 323.724 22.5913 320.609 25.414C317.592 28.1393 313.601 29.502 308.637 29.502ZM322.799 37.094V119H294.183V37.094H322.799ZM392.677 36.364C402.118 36.364 409.613 39.5273 415.161 45.854C420.709 52.0833 423.483 60.5513 423.483 71.258V119H394.867V75.054C394.867 70.382 393.65 66.732 391.217 64.104C388.784 61.3787 385.523 60.016 381.435 60.016C377.152 60.016 373.794 61.3787 371.361 64.104C368.928 66.732 367.711 70.382 367.711 75.054V119H339.095V37.094H367.711V48.774C370.242 45.0753 373.648 42.1067 377.931 39.868C382.214 37.532 387.129 36.364 392.677 36.364ZM515.456 94.618V119H503.046C482.119 119 471.656 108.634 471.656 87.902V60.892H461.582V37.094H471.656V17.238H500.418V37.094H515.31V60.892H500.418V88.34C500.418 90.5787 500.905 92.1847 501.878 93.158C502.949 94.1313 504.701 94.618 507.134 94.618H515.456ZM582.455 36.364C591.799 36.364 599.197 39.5273 604.647 45.854C610.195 52.0833 612.969 60.5513 612.969 71.258V119H584.353V75.054C584.353 70.382 583.137 66.732 580.703 64.104C578.27 61.3787 575.009 60.016 570.921 60.016C566.639 60.016 563.281 61.3787 560.847 64.104C558.414 66.732 557.197 70.382 557.197 75.054V119H528.581V10.96H557.197V48.774C559.728 45.0753 563.135 42.1067 567.417 39.868C571.797 37.532 576.81 36.364 582.455 36.364ZM706.927 77.098C706.927 79.3367 706.781 81.5753 706.489 83.814H652.323C652.615 88.2913 653.832 91.6493 655.973 93.888C658.212 96.0293 661.034 97.1 664.441 97.1C669.21 97.1 672.617 94.9587 674.661 90.676H705.175C703.91 96.3213 701.428 101.383 697.729 105.86C694.128 110.24 689.553 113.695 684.005 116.226C678.457 118.757 672.325 120.022 665.609 120.022C657.53 120.022 650.328 118.319 644.001 114.912C637.772 111.505 632.856 106.639 629.255 100.312C625.751 93.9853 623.999 86.5393 623.999 77.974C623.999 69.4087 625.751 62.0113 629.255 55.782C632.759 49.4553 637.626 44.5887 643.855 41.182C650.182 37.7753 657.433 36.072 665.609 36.072C673.688 36.072 680.842 37.7267 687.071 41.036C693.3 44.3453 698.167 49.1147 701.671 55.344C705.175 61.476 706.927 68.7273 706.927 77.098ZM677.727 69.944C677.727 66.44 676.559 63.7147 674.223 61.768C671.887 59.724 668.967 58.702 665.463 58.702C661.959 58.702 659.088 59.6753 656.849 61.622C654.61 63.4713 653.15 66.2453 652.469 69.944H677.727ZM812.283 49.942C810.629 47.2167 808.341 45.124 805.421 43.664C802.599 42.204 799.241 41.474 795.347 41.474C788.145 41.474 782.451 43.81 778.265 48.482C774.177 53.154 772.133 59.432 772.133 67.316C772.133 76.1733 774.323 82.938 778.703 87.61C783.181 92.1847 789.653 94.472 798.121 94.472C808.147 94.472 815.301 89.946 819.583 80.894H790.821V60.308H844.257V88.048C842.019 93.4987 838.709 98.6087 834.329 103.378C830.047 108.147 824.596 112.089 817.977 115.204C811.359 118.221 803.815 119.73 795.347 119.73C785.03 119.73 775.881 117.54 767.899 113.16C760.015 108.683 753.883 102.502 749.503 94.618C745.221 86.6367 743.079 77.536 743.079 67.316C743.079 57.1933 745.221 48.19 749.503 40.306C753.883 32.3247 760.015 26.144 767.899 21.764C775.783 17.2867 784.884 15.048 795.201 15.048C808.147 15.048 818.853 18.1627 827.321 24.392C835.789 30.6213 841.045 39.138 843.089 49.942H812.283ZM852.409 77.974C852.409 69.506 853.918 62.1087 856.935 55.782C860.05 49.4553 864.235 44.5887 869.491 41.182C874.845 37.7753 880.782 36.072 887.303 36.072C892.949 36.072 897.815 37.1913 901.903 39.43C905.991 41.6687 909.155 44.686 911.393 48.482V37.094H940.009V119H911.393V107.612C909.155 111.408 905.943 114.425 901.757 116.664C897.669 118.903 892.851 120.022 887.303 120.022C880.782 120.022 874.845 118.319 869.491 114.912C864.235 111.505 860.05 106.639 856.935 100.312C853.918 93.888 852.409 86.442 852.409 77.974ZM911.393 77.974C911.393 72.718 909.933 68.5813 907.013 65.564C904.191 62.5467 900.687 61.038 896.501 61.038C892.219 61.038 888.666 62.5467 885.843 65.564C883.021 68.484 881.609 72.6207 881.609 77.974C881.609 83.23 883.021 87.4153 885.843 90.53C888.666 93.5473 892.219 95.056 896.501 95.056C900.687 95.056 904.191 93.5473 907.013 90.53C909.933 87.5127 911.393 83.3273 911.393 77.974ZM1063.33 36.364C1073.65 36.364 1081.73 39.4787 1087.57 45.708C1093.51 51.9373 1096.48 60.454 1096.48 71.258V119H1067.86V75.054C1067.86 70.674 1066.64 67.2673 1064.21 64.834C1061.78 62.4007 1058.47 61.184 1054.28 61.184C1050.1 61.184 1046.79 62.4007 1044.35 64.834C1041.92 67.2673 1040.7 70.674 1040.7 75.054V119H1012.09V75.054C1012.09 70.674 1010.87 67.2673 1008.44 64.834C1006.1 62.4007 1002.84 61.184 998.656 61.184C994.373 61.184 991.015 62.4007 988.582 64.834C986.148 67.2673 984.932 70.674 984.932 75.054V119H956.316V37.094H984.932V47.898C987.462 44.394 990.723 41.62 994.714 39.576C998.802 37.4347 1003.47 36.364 1008.73 36.364C1014.76 36.364 1020.12 37.678 1024.79 40.306C1029.56 42.934 1033.31 46.6327 1036.03 51.402C1038.95 46.9247 1042.8 43.3233 1047.57 40.598C1052.33 37.7753 1057.59 36.364 1063.33 36.364ZM1190.41 77.098C1190.41 79.3367 1190.26 81.5753 1189.97 83.814H1135.81C1136.1 88.2913 1137.31 91.6493 1139.46 93.888C1141.69 96.0293 1144.52 97.1 1147.92 97.1C1152.69 97.1 1156.1 94.9587 1158.14 90.676H1188.66C1187.39 96.3213 1184.91 101.383 1181.21 105.86C1177.61 110.24 1173.04 113.695 1167.49 116.226C1161.94 118.757 1155.81 120.022 1149.09 120.022C1141.01 120.022 1133.81 118.319 1127.48 114.912C1121.25 111.505 1116.34 106.639 1112.74 100.312C1109.23 93.9853 1107.48 86.5393 1107.48 77.974C1107.48 69.4087 1109.23 62.0113 1112.74 55.782C1116.24 49.4553 1121.11 44.5887 1127.34 41.182C1133.66 37.7753 1140.92 36.072 1149.09 36.072C1157.17 36.072 1164.32 37.7267 1170.55 41.036C1176.78 44.3453 1181.65 49.1147 1185.15 55.344C1188.66 61.476 1190.41 68.7273 1190.41 77.098ZM1161.21 69.944C1161.21 66.44 1160.04 63.7147 1157.71 61.768C1155.37 59.724 1152.45 58.702 1148.95 58.702C1145.44 58.702 1142.57 59.6753 1140.33 61.622C1138.09 63.4713 1136.63 66.2453 1135.95 69.944H1161.21ZM1232.93 94.472L1217.3 137.104H1199.2L1206.79 94.472H1232.93ZM93.714 156.07V178.846H52.542V196.95H82.91V218.704H52.542V259H23.926V156.07H93.714ZM184.022 217.098C184.022 219.337 183.876 221.575 183.584 223.814H129.418C129.71 228.291 130.927 231.649 133.068 233.888C135.307 236.029 138.129 237.1 141.536 237.1C146.305 237.1 149.712 234.959 151.756 230.676H182.27C181.005 236.321 178.523 241.383 174.824 245.86C171.223 250.24 166.648 253.695 161.1 256.226C155.552 258.757 149.42 260.022 142.704 260.022C134.625 260.022 127.423 258.319 121.096 254.912C114.867 251.505 109.951 246.639 106.35 240.312C102.846 233.985 101.094 226.539 101.094 217.974C101.094 209.409 102.846 202.011 106.35 195.782C109.854 189.455 114.721 184.589 120.95 181.182C127.277 177.775 134.528 176.072 142.704 176.072C150.783 176.072 157.937 177.727 164.166 181.036C170.395 184.345 175.262 189.115 178.766 195.344C182.27 201.476 184.022 208.727 184.022 217.098ZM154.822 209.944C154.822 206.44 153.654 203.715 151.318 201.768C148.982 199.724 146.062 198.702 142.558 198.702C139.054 198.702 136.183 199.675 133.944 201.622C131.705 203.471 130.245 206.245 129.564 209.944H154.822ZM273.989 217.098C273.989 219.337 273.843 221.575 273.551 223.814H219.385C219.677 228.291 220.893 231.649 223.035 233.888C225.273 236.029 228.096 237.1 231.503 237.1C236.272 237.1 239.679 234.959 241.723 230.676H272.237C270.971 236.321 268.489 241.383 264.791 245.86C261.189 250.24 256.615 253.695 251.067 256.226C245.519 258.757 239.387 260.022 232.671 260.022C224.592 260.022 217.389 258.319 211.063 254.912C204.833 251.505 199.918 246.639 196.317 240.312C192.813 233.985 191.061 226.539 191.061 217.974C191.061 209.409 192.813 202.011 196.317 195.782C199.821 189.455 204.687 184.589 210.917 181.182C217.243 177.775 224.495 176.072 232.671 176.072C240.749 176.072 247.903 177.727 254.133 181.036C260.362 184.345 265.229 189.115 268.733 195.344C272.237 201.476 273.989 208.727 273.989 217.098ZM244.789 209.944C244.789 206.44 243.621 203.715 241.285 201.768C238.949 199.724 236.029 198.702 232.525 198.702C229.021 198.702 226.149 199.675 223.911 201.622C221.672 203.471 220.212 206.245 219.531 209.944H244.789ZM314.315 150.96V259H285.699V150.96H314.315ZM406.883 234.618V259H394.473C373.546 259 363.083 248.634 363.083 227.902V200.892H353.009V177.094H363.083V157.238H391.845V177.094H406.737V200.892H391.845V228.34C391.845 230.579 392.332 232.185 393.305 233.158C394.376 234.131 396.128 234.618 398.561 234.618H406.883ZM473.882 176.364C483.226 176.364 490.623 179.527 496.074 185.854C501.622 192.083 504.396 200.551 504.396 211.258V259H475.78V215.054C475.78 210.382 474.563 206.732 472.13 204.104C469.697 201.379 466.436 200.016 462.348 200.016C458.065 200.016 454.707 201.379 452.274 204.104C449.841 206.732 448.624 210.382 448.624 215.054V259H420.008V150.96H448.624V188.774C451.155 185.075 454.561 182.107 458.844 179.868C463.224 177.532 468.237 176.364 473.882 176.364ZM598.354 217.098C598.354 219.337 598.208 221.575 597.916 223.814H543.75C544.042 228.291 545.259 231.649 547.4 233.888C549.639 236.029 552.461 237.1 555.868 237.1C560.637 237.1 564.044 234.959 566.088 230.676H596.602C595.337 236.321 592.855 241.383 589.156 245.86C585.555 250.24 580.98 253.695 575.432 256.226C569.884 258.757 563.752 260.022 557.036 260.022C548.957 260.022 541.755 258.319 535.428 254.912C529.199 251.505 524.283 246.639 520.682 240.312C517.178 233.985 515.426 226.539 515.426 217.974C515.426 209.409 517.178 202.011 520.682 195.782C524.186 189.455 529.053 184.589 535.282 181.182C541.609 177.775 548.86 176.072 557.036 176.072C565.115 176.072 572.269 177.727 578.498 181.036C584.727 184.345 589.594 189.115 593.098 195.344C596.602 201.476 598.354 208.727 598.354 217.098ZM569.154 209.944C569.154 206.44 567.986 203.715 565.65 201.768C563.314 199.724 560.394 198.702 556.89 198.702C553.386 198.702 550.515 199.675 548.276 201.622C546.037 203.471 544.577 206.245 543.896 209.944H569.154ZM676.846 260.022C664.874 260.022 655.043 257.199 647.354 251.554C639.665 245.811 635.528 237.635 634.944 227.026H665.458C665.75 230.627 666.821 233.255 668.67 234.91C670.519 236.565 672.904 237.392 675.824 237.392C678.452 237.392 680.593 236.759 682.248 235.494C684 234.131 684.876 232.282 684.876 229.946C684.876 226.929 683.465 224.593 680.642 222.938C677.819 221.283 673.245 219.434 666.918 217.39C660.202 215.151 654.751 213.01 650.566 210.966C646.478 208.825 642.877 205.759 639.762 201.768C636.745 197.68 635.236 192.375 635.236 185.854C635.236 179.235 636.891 173.59 640.2 168.918C643.509 164.149 648.084 160.547 653.924 158.114C659.764 155.681 666.383 154.464 673.78 154.464C685.752 154.464 695.291 157.287 702.396 162.932C709.599 168.48 713.443 176.315 713.93 186.438H682.832C682.735 183.323 681.761 180.987 679.912 179.43C678.16 177.873 675.873 177.094 673.05 177.094C670.909 177.094 669.157 177.727 667.794 178.992C666.431 180.257 665.75 182.058 665.75 184.394C665.75 186.341 666.48 188.044 667.94 189.504C669.497 190.867 671.395 192.083 673.634 193.154C675.873 194.127 679.182 195.393 683.562 196.95C690.083 199.189 695.437 201.427 699.622 203.666C703.905 205.807 707.555 208.873 710.572 212.864C713.687 216.757 715.244 221.721 715.244 227.756C715.244 233.888 713.687 239.387 710.572 244.254C707.555 249.121 703.126 252.965 697.286 255.788C691.543 258.611 684.73 260.022 676.846 260.022ZM835.565 176.364C845.882 176.364 853.961 179.479 859.801 185.708C865.738 191.937 868.707 200.454 868.707 211.258V259H840.091V215.054C840.091 210.674 838.874 207.267 836.441 204.834C834.008 202.401 830.698 201.184 826.513 201.184C822.328 201.184 819.018 202.401 816.585 204.834C814.152 207.267 812.935 210.674 812.935 215.054V259H784.319V215.054C784.319 210.674 783.102 207.267 780.669 204.834C778.333 202.401 775.072 201.184 770.887 201.184C766.604 201.184 763.246 202.401 760.813 204.834C758.38 207.267 757.163 210.674 757.163 215.054V259H728.547V177.094H757.163V187.898C759.694 184.394 762.954 181.62 766.945 179.576C771.033 177.435 775.705 176.364 780.961 176.364C786.996 176.364 792.349 177.678 797.021 180.306C801.79 182.934 805.538 186.633 808.263 191.402C811.183 186.925 815.028 183.323 819.797 180.598C824.566 177.775 829.822 176.364 835.565 176.364ZM879.713 217.974C879.713 209.506 881.222 202.109 884.239 195.782C887.354 189.455 891.539 184.589 896.795 181.182C902.148 177.775 908.086 176.072 914.607 176.072C920.252 176.072 925.119 177.191 929.207 179.43C933.295 181.669 936.458 184.686 938.697 188.482V177.094H967.313V259H938.697V247.612C936.458 251.408 933.246 254.425 929.061 256.664C924.973 258.903 920.155 260.022 914.607 260.022C908.086 260.022 902.148 258.319 896.795 254.912C891.539 251.505 887.354 246.639 884.239 240.312C881.222 233.888 879.713 226.442 879.713 217.974ZM938.697 217.974C938.697 212.718 937.237 208.581 934.317 205.564C931.494 202.547 927.99 201.038 923.805 201.038C919.522 201.038 915.97 202.547 913.147 205.564C910.324 208.484 908.913 212.621 908.913 217.974C908.913 223.23 910.324 227.415 913.147 230.53C915.97 233.547 919.522 235.056 923.805 235.056C927.99 235.056 931.494 233.547 934.317 230.53C937.237 227.513 938.697 223.327 938.697 217.974ZM1018.51 260.022C1011.12 260.022 1004.5 258.805 998.657 256.372C992.915 253.841 988.34 250.435 984.933 246.152C981.624 241.772 979.775 236.857 979.385 231.406H1007.13C1007.51 234.034 1008.73 236.078 1010.78 237.538C1012.82 238.998 1015.35 239.728 1018.37 239.728C1020.7 239.728 1022.55 239.241 1023.92 238.268C1025.28 237.295 1025.96 236.029 1025.96 234.472C1025.96 232.428 1024.84 230.919 1022.6 229.946C1020.36 228.973 1016.66 227.902 1011.51 226.734C1005.67 225.566 1000.8 224.252 996.905 222.792C993.012 221.332 989.605 218.947 986.685 215.638C983.863 212.329 982.451 207.851 982.451 202.206C982.451 197.339 983.765 192.959 986.393 189.066C989.021 185.075 992.866 181.912 997.927 179.576C1003.09 177.24 1009.27 176.072 1016.47 176.072C1027.18 176.072 1035.6 178.7 1041.73 183.956C1047.86 189.212 1051.41 196.123 1052.39 204.688H1026.54C1026.06 202.06 1024.89 200.065 1023.04 198.702C1021.29 197.242 1018.9 196.512 1015.89 196.512C1013.55 196.512 1011.75 196.95 1010.48 197.826C1009.32 198.702 1008.73 199.919 1008.73 201.476C1008.73 203.423 1009.85 204.931 1012.09 206.002C1014.33 206.975 1017.93 207.997 1022.89 209.068C1028.83 210.333 1033.75 211.745 1037.64 213.302C1041.63 214.859 1045.09 217.39 1048.01 220.894C1051.02 224.301 1052.53 228.973 1052.53 234.91C1052.53 239.679 1051.12 243.962 1048.3 247.758C1045.57 251.554 1041.63 254.571 1036.47 256.81C1031.41 258.951 1025.42 260.022 1018.51 260.022ZM1120.47 176.364C1129.82 176.364 1137.22 179.527 1142.67 185.854C1148.21 192.083 1150.99 200.551 1150.99 211.258V259H1122.37V215.054C1122.37 210.382 1121.16 206.732 1118.72 204.104C1116.29 201.379 1113.03 200.016 1108.94 200.016C1104.66 200.016 1101.3 201.379 1098.87 204.104C1096.43 206.732 1095.22 210.382 1095.22 215.054V259H1066.6V150.96H1095.22V188.774C1097.75 185.075 1101.15 182.107 1105.44 179.868C1109.82 177.532 1114.83 176.364 1120.47 176.364ZM1204.94 150.814L1201.58 220.456H1177.2L1173.84 150.814H1204.94ZM1189.47 260.168C1184.4 260.168 1180.32 258.805 1177.2 256.08C1174.18 253.257 1172.68 249.705 1172.68 245.422C1172.68 241.139 1174.18 237.587 1177.2 234.764C1180.32 231.941 1184.4 230.53 1189.47 230.53C1194.43 230.53 1198.42 231.941 1201.44 234.764C1204.55 237.587 1206.11 241.139 1206.11 245.422C1206.11 249.607 1204.55 253.111 1201.44 255.934C1198.42 258.757 1194.43 260.168 1189.47 260.168Z" fill="white"/>
<path d="M70.0215 49.942L65.7476 52.5369L67.2078 54.942H70.0215V49.942ZM63.1595 43.664L60.8624 48.1051L60.8928 48.1208L60.9234 48.1361L63.1595 43.664ZM36.0035 48.482L32.2793 45.1458L32.2598 45.1675L32.2406 45.1895L36.0035 48.482ZM36.4415 87.61L32.7938 91.0297L32.8306 91.0689L32.8682 91.1073L36.4415 87.61ZM77.3215 80.894L81.8412 83.0323L85.2185 75.894H77.3215V80.894ZM48.5595 80.894H43.5595V85.894H48.5595V80.894ZM48.5595 60.308V55.308H43.5595V60.308H48.5595ZM101.996 60.308H106.996V55.308H101.996V60.308ZM101.996 88.048L106.621 89.9476L106.996 89.0348V88.048H101.996ZM92.0675 103.378L88.3849 99.996L88.3659 100.017L88.3473 100.037L92.0675 103.378ZM75.7155 115.204L77.7896 119.754L77.8171 119.741L77.8445 119.728L75.7155 115.204ZM25.6375 113.16L23.1684 117.508L23.2001 117.526L23.232 117.543L25.6375 113.16ZM7.24151 94.618L2.83571 96.9821L2.85298 97.0143L2.87072 97.0462L7.24151 94.618ZM7.24151 40.306L2.85817 37.9005L2.85301 37.9099L2.84789 37.9193L7.24151 40.306ZM25.6375 21.764L28.0657 26.1348L28.0862 26.1234L28.1066 26.1118L25.6375 21.764ZM85.0595 24.392L82.0967 28.4196H82.0967L85.0595 24.392ZM100.828 49.942V54.942H106.862L105.74 49.0125L100.828 49.942ZM74.2954 47.3471C72.1397 43.7964 69.1368 41.0625 65.3956 39.1919L60.9234 48.1361C63.0222 49.1855 64.594 50.6369 65.7476 52.5369L74.2954 47.3471ZM65.4566 39.2229C61.7815 37.322 57.6008 36.474 53.0855 36.474V46.474C56.3569 46.474 58.8921 47.086 60.8624 48.1051L65.4566 39.2229ZM53.0855 36.474C44.6942 36.474 37.5581 39.2532 32.2793 45.1458L39.7277 51.8182C42.8196 48.3668 47.0715 46.474 53.0855 46.474V36.474ZM32.2406 45.1895C27.1582 50.998 24.8715 58.5577 24.8715 67.316H34.8715C34.8715 60.3063 36.6728 55.31 39.7664 51.7745L32.2406 45.1895ZM24.8715 67.316C24.8715 76.9523 27.2589 85.1258 32.7938 91.0297L40.0892 84.1903C36.8641 80.7502 34.8715 75.3944 34.8715 67.316H24.8715ZM32.8682 91.1073C38.5608 96.9237 46.4981 99.472 55.8595 99.472V89.472C48.2849 89.472 43.2769 87.4456 40.0149 84.1127L32.8682 91.1073ZM55.8595 99.472C61.6418 99.472 66.9031 98.1587 71.4172 95.3029C75.9317 92.4468 79.3698 88.256 81.8412 83.0323L72.8018 78.7557C70.9906 82.584 68.7104 85.1822 66.0708 86.8521C63.4309 88.5222 60.1025 89.472 55.8595 89.472V99.472ZM77.3215 75.894H48.5595V85.894H77.3215V75.894ZM53.5595 80.894V60.308H43.5595V80.894H53.5595ZM48.5595 65.308H101.996V55.308H48.5595V65.308ZM96.9955 60.308V88.048H106.996V60.308H96.9955ZM97.3704 86.1484C95.3771 91.0017 92.4051 95.6184 88.3849 99.996L95.7502 106.76C100.49 101.599 104.137 95.9956 106.621 89.9476L97.3704 86.1484ZM88.3473 100.037C84.5693 104.245 79.6859 107.81 73.5865 110.68L77.8445 119.728C84.9825 116.369 91.0004 112.05 95.7878 106.719L88.3473 100.037ZM73.6415 110.654C67.7723 113.33 60.9545 114.73 53.0855 114.73V124.73C62.1525 124.73 70.4214 123.113 77.7896 119.754L73.6415 110.654ZM53.0855 114.73C43.4955 114.73 35.1935 112.701 28.043 108.777L23.232 117.543C32.0442 122.379 42.0409 124.73 53.0855 124.73V114.73ZM28.1066 108.812C21.0162 104.786 15.5441 99.2671 11.6123 92.1898L2.87072 97.0462C7.69891 105.737 14.4908 112.58 23.1684 117.508L28.1066 108.812ZM11.6473 92.2539C7.80247 85.0885 5.81751 76.8183 5.81751 67.316H-4.18249C-4.18249 78.2537 -1.88479 88.1848 2.83571 96.9821L11.6473 92.2539ZM5.81751 67.316C5.81751 57.9185 7.79914 49.7544 11.6351 42.6926L2.84789 37.9193C-1.88145 46.6256 -4.18249 56.4681 -4.18249 67.316H5.81751ZM11.6248 42.7115C15.5559 35.5482 21.0138 30.0525 28.0657 26.1348L23.2093 17.3932C14.4932 22.2355 7.68708 29.1012 2.85817 37.9005L11.6248 42.7115ZM28.1066 26.1118C35.139 22.1181 43.3665 20.048 52.9395 20.048V10.048C41.8778 10.048 31.904 12.4552 23.1684 17.4162L28.1066 26.1118ZM52.9395 20.048C65.0699 20.048 74.6697 22.9561 82.0967 28.4196L88.0223 20.3644C78.5133 13.3693 66.6998 10.048 52.9395 10.048V20.048ZM82.0967 28.4196C89.496 33.8628 94.0938 41.2466 95.9147 50.8715L105.74 49.0125C103.473 37.0294 97.5591 27.3799 88.0223 20.3644L82.0967 28.4196ZM100.828 44.942H70.0215V54.942H100.828V44.942ZM192.638 83.814V88.814H197.028L197.596 84.4607L192.638 83.814ZM138.472 83.814V78.814H133.135L133.482 84.1394L138.472 83.814ZM142.122 93.888L138.508 97.3441L138.585 97.4244L138.665 97.5012L142.122 93.888ZM160.81 90.676V85.676H157.656L156.297 88.5224L160.81 90.676ZM191.324 90.676L196.203 91.7696L197.568 85.676H191.324V90.676ZM183.878 105.86L180.023 102.676L180.015 102.684L183.878 105.86ZM170.154 116.226L172.229 120.775L170.154 116.226ZM130.15 114.912L127.75 119.299L127.765 119.307L127.779 119.314L130.15 114.912ZM115.404 100.312L111.03 102.734L111.044 102.76L111.058 102.785L115.404 100.312ZM115.404 55.782L119.761 58.2333L119.77 58.2189L119.778 58.2045L115.404 55.782ZM130.004 41.182L127.633 36.7796L127.619 36.7873L127.604 36.7951L130.004 41.182ZM173.22 41.036L175.565 36.6204V36.6204L173.22 41.036ZM187.82 55.344L183.462 57.7953L183.47 57.81L183.478 57.8247L187.82 55.344ZM163.876 69.944V74.944H168.876V69.944H163.876ZM160.372 61.768L157.079 65.5309L157.124 65.5705L157.171 65.6091L160.372 61.768ZM142.998 61.622L146.182 65.4768L146.231 65.4365L146.278 65.395L142.998 61.622ZM138.618 69.944L133.7 69.0382L132.612 74.944H138.618V69.944ZM188.076 77.098C188.076 79.1186 187.944 81.1413 187.68 83.1673L197.596 84.4607C197.915 82.0094 198.076 79.5547 198.076 77.098H188.076ZM192.638 78.814H138.472V88.814H192.638V78.814ZM133.482 84.1394C133.817 89.2758 135.258 93.9463 138.508 97.3441L145.735 90.4319C144.702 89.3523 143.71 87.3069 143.461 83.4886L133.482 84.1394ZM138.665 97.5012C141.931 100.625 146.035 102.1 150.59 102.1V92.1C148.33 92.1 146.789 91.4338 145.578 90.2748L138.665 97.5012ZM150.59 102.1C153.739 102.1 156.745 101.385 159.382 99.7272C162.022 98.0682 163.966 95.6699 165.322 92.8296L156.297 88.5224C155.609 89.9647 154.828 90.7785 154.061 91.2608C153.292 91.7441 152.209 92.1 150.59 92.1V102.1ZM160.81 95.676H191.324V85.676H160.81V95.676ZM186.445 89.5824C185.352 94.4569 183.222 98.8025 180.023 102.676L187.732 109.044C191.93 103.963 194.764 98.1858 196.203 91.7696L186.445 89.5824ZM180.015 102.684C176.933 106.433 172.987 109.438 168.079 111.677L172.229 120.775C178.416 117.953 183.619 114.047 187.74 109.036L180.015 102.684ZM168.079 111.677C163.245 113.881 157.831 115.022 151.758 115.022V125.022C159.116 125.022 165.966 123.632 172.229 120.775L168.079 111.677ZM151.758 115.022C144.402 115.022 138.032 113.477 132.52 110.51L127.779 119.314C134.921 123.16 142.956 125.022 151.758 125.022V115.022ZM132.549 110.525C127.154 107.575 122.904 103.381 119.749 97.8385L111.058 102.785C115.106 109.897 120.686 115.436 127.75 119.299L132.549 110.525ZM119.778 97.8895C116.754 92.43 115.148 85.8483 115.148 77.974H105.148C105.148 87.2304 107.045 95.5406 111.03 102.734L119.778 97.8895ZM115.148 77.974C115.148 70.0971 116.755 63.5787 119.761 58.2333L111.046 53.3307C107.044 60.444 105.148 68.7202 105.148 77.974H115.148ZM119.778 58.2045C122.832 52.6901 127.021 48.5121 132.403 45.5688L127.604 36.7951C120.528 40.6652 114.983 46.2205 111.03 53.3595L119.778 58.2045ZM132.374 45.5844C137.877 42.6212 144.294 41.072 151.758 41.072V31.072C142.869 31.072 134.783 32.9294 127.633 36.7796L132.374 45.5844ZM151.758 41.072C159.138 41.072 165.466 42.5785 170.874 45.4516L175.565 36.6204C168.515 32.8748 160.534 31.072 151.758 31.072V41.072ZM170.874 45.4516C176.247 48.3059 180.42 52.388 183.462 57.7953L192.177 52.8927C188.211 45.8413 182.651 40.3848 175.565 36.6204L170.874 45.4516ZM183.478 57.8247C186.477 63.0721 188.076 69.4357 188.076 77.098H198.076C198.076 68.019 196.17 59.8799 192.161 52.8633L183.478 57.8247ZM168.876 69.944C168.876 65.2086 167.229 60.9741 163.572 57.9269L157.171 65.6091C158.186 66.4552 158.876 67.6714 158.876 69.944H168.876ZM163.664 58.0051C160.298 55.0602 156.16 53.702 151.612 53.702V63.702C154.071 63.702 155.773 64.3878 157.079 65.5309L163.664 58.0051ZM151.612 53.702C147.132 53.702 143.025 54.9721 139.717 57.849L146.278 65.395C147.447 64.3785 149.083 63.702 151.612 63.702V53.702ZM139.813 57.7672C136.429 60.563 134.531 64.5306 133.7 69.0382L143.535 70.8498C144.067 67.96 145.089 66.3797 146.182 65.4768L139.813 57.7672ZM138.618 74.944H163.876V64.944H138.618V74.944ZM253.112 94.618H258.112V89.618H253.112V94.618ZM253.112 119V124H258.112V119H253.112ZM209.312 60.892H214.312V55.892H209.312V60.892ZM199.238 60.892H194.238V65.892H199.238V60.892ZM199.238 37.094V32.094H194.238V37.094H199.238ZM209.312 37.094V42.094H214.312V37.094H209.312ZM209.312 17.238V12.238H204.312V17.238H209.312ZM238.074 17.238H243.074V12.238H238.074V17.238ZM238.074 37.094H233.074V42.094H238.074V37.094ZM252.966 37.094H257.966V32.094H252.966V37.094ZM252.966 60.892V65.892H257.966V60.892H252.966ZM238.074 60.892V55.892H233.074V60.892H238.074ZM239.534 93.158L235.999 96.6935L236.083 96.7777L236.171 96.8577L239.534 93.158ZM248.112 94.618V119H258.112V94.618H248.112ZM253.112 114H240.702V124H253.112V114ZM240.702 114C230.998 114 224.641 111.598 220.679 107.673C216.726 103.757 214.312 97.4854 214.312 87.902H204.312C204.312 99.0506 207.131 108.328 213.641 114.778C220.143 121.219 229.48 124 240.702 124V114ZM214.312 87.902V60.892H204.312V87.902H214.312ZM209.312 55.892H199.238V65.892H209.312V55.892ZM204.238 60.892V37.094H194.238V60.892H204.238ZM199.238 42.094H209.312V32.094H199.238V42.094ZM214.312 37.094V17.238H204.312V37.094H214.312ZM209.312 22.238H238.074V12.238H209.312V22.238ZM233.074 17.238V37.094H243.074V17.238H233.074ZM238.074 42.094H252.966V32.094H238.074V42.094ZM247.966 37.094V60.892H257.966V37.094H247.966ZM252.966 55.892H238.074V65.892H252.966V55.892ZM233.074 60.892V88.34H243.074V60.892H233.074ZM233.074 88.34C233.074 91.111 233.646 94.3406 235.999 96.6935L243.07 89.6225C243.279 89.8319 243.281 89.9598 243.224 89.7735C243.162 89.5676 243.074 89.1212 243.074 88.34H233.074ZM236.171 96.8577C238.614 99.0783 241.901 99.618 244.79 99.618V89.618C243.884 89.618 243.311 89.5248 242.99 89.4354C242.678 89.3489 242.725 89.3016 242.898 89.4583L236.171 96.8577ZM244.79 99.618H253.112V89.618H244.79V99.618ZM296.373 25.414L292.957 29.0654L293.018 29.1221L293.08 29.1769L296.373 25.414ZM296.373 4.244L293.015 0.539066L292.986 0.565623L292.957 0.59264L296.373 4.244ZM320.609 4.244L317.193 7.89535L317.222 7.92237L317.251 7.94893L320.609 4.244ZM320.609 25.414L323.96 29.1245L323.966 29.1189L320.609 25.414ZM322.799 37.094H327.799V32.094H322.799V37.094ZM322.799 119V124H327.799V119H322.799ZM294.183 119H289.183V124H294.183V119ZM294.183 37.094V32.094H289.183V37.094H294.183ZM308.637 24.502C304.505 24.502 301.677 23.4112 299.665 21.6511L293.08 29.1769C297.298 32.8675 302.646 34.502 308.637 34.502V24.502ZM299.789 21.7626C297.797 19.8992 296.847 17.7238 296.847 14.902H286.847C286.847 20.4509 288.914 25.2834 292.957 29.0654L299.789 21.7626ZM296.847 14.902C296.847 11.9462 297.823 9.73432 299.789 7.89536L292.957 0.59264C288.888 4.39901 286.847 9.29245 286.847 14.902H296.847ZM299.73 7.94893C301.745 6.12306 304.55 5.00999 308.637 5.00999V-4.99001C302.601 -4.99001 297.23 -3.2804 293.015 0.539066L299.73 7.94893ZM308.637 5.00999C312.603 5.00999 315.282 6.10791 317.193 7.89535L324.025 0.592643C319.901 -3.26526 314.599 -4.99001 308.637 -4.99001V5.00999ZM317.251 7.94893C319.298 9.80361 320.281 12.0004 320.281 14.902H330.281C330.281 9.23822 328.149 4.32972 323.966 0.539062L317.251 7.94893ZM320.281 14.902C320.281 17.6689 319.325 19.8295 317.251 21.7091L323.966 29.1189C328.122 25.3531 330.281 20.5057 330.281 14.902H320.281ZM317.257 21.7035C315.352 23.4248 312.649 24.502 308.637 24.502V34.502C314.552 34.502 319.831 32.8538 323.96 29.1245L317.257 21.7035ZM317.799 37.094V119H327.799V37.094H317.799ZM322.799 114H294.183V124H322.799V114ZM299.183 119V37.094H289.183V119H299.183ZM294.183 42.094H322.799V32.094H294.183V42.094ZM415.161 45.854L411.402 49.1506L411.414 49.1651L411.427 49.1794L415.161 45.854ZM423.483 119V124H428.483V119H423.483ZM394.867 119H389.867V124H394.867V119ZM391.217 64.104L387.487 67.4341L387.517 67.4678L387.548 67.501L391.217 64.104ZM371.361 64.104L375.03 67.501L375.06 67.4678L375.091 67.4341L371.361 64.104ZM367.711 119V124H372.711V119H367.711ZM339.095 119H334.095V124H339.095V119ZM339.095 37.094V32.094H334.095V37.094H339.095ZM367.711 37.094H372.711V32.094H367.711V37.094ZM367.711 48.774H362.711V64.9362L371.837 51.5974L367.711 48.774ZM377.931 39.868L380.247 44.2991L380.286 44.2786L380.325 44.2575L377.931 39.868ZM392.677 41.364C400.874 41.364 406.925 44.0457 411.402 49.1506L418.92 42.5574C412.301 35.0089 403.362 31.364 392.677 31.364V41.364ZM411.427 49.1794C415.949 54.2571 418.483 61.4198 418.483 71.258H428.483C428.483 59.6828 425.468 49.9095 418.895 42.5286L411.427 49.1794ZM418.483 71.258V119H428.483V71.258H418.483ZM423.483 114H394.867V124H423.483V114ZM399.867 119V75.054H389.867V119H399.867ZM399.867 75.054C399.867 69.5171 398.41 64.5129 394.886 60.707L387.548 67.501C388.891 68.9511 389.867 71.2469 389.867 75.054H399.867ZM394.947 60.7739C391.446 56.8531 386.759 55.016 381.435 55.016V65.016C384.287 65.016 386.121 65.9042 387.487 67.4341L394.947 60.7739ZM381.435 55.016C375.997 55.016 371.179 56.8005 367.631 60.7739L375.091 67.4341C376.41 65.9568 378.307 65.016 381.435 65.016V55.016ZM367.692 60.707C364.168 64.5129 362.711 69.5171 362.711 75.054H372.711C372.711 71.2469 373.687 68.9511 375.03 67.501L367.692 60.707ZM362.711 75.054V119H372.711V75.054H362.711ZM367.711 114H339.095V124H367.711V114ZM344.095 119V37.094H334.095V119H344.095ZM339.095 42.094H367.711V32.094H339.095V42.094ZM362.711 37.094V48.774H372.711V37.094H362.711ZM371.837 51.5974C373.87 48.6272 376.632 46.1888 380.247 44.2991L375.615 35.4369C370.664 38.0246 366.613 41.5235 363.584 45.9506L371.837 51.5974ZM380.325 44.2575C383.778 42.3743 387.849 41.364 392.677 41.364V31.364C386.409 31.364 380.65 32.6897 375.537 35.4785L380.325 44.2575ZM515.456 94.618H520.456V89.618H515.456V94.618ZM515.456 119V124H520.456V119H515.456ZM471.656 60.892H476.656V55.892H471.656V60.892ZM461.582 60.892H456.582V65.892H461.582V60.892ZM461.582 37.094V32.094H456.582V37.094H461.582ZM471.656 37.094V42.094H476.656V37.094H471.656ZM471.656 17.238V12.238H466.656V17.238H471.656ZM500.418 17.238H505.418V12.238H500.418V17.238ZM500.418 37.094H495.418V42.094H500.418V37.094ZM515.31 37.094H520.31V32.094H515.31V37.094ZM515.31 60.892V65.892H520.31V60.892H515.31ZM500.418 60.892V55.892H495.418V60.892H500.418ZM501.878 93.158L498.343 96.6935L498.427 96.7777L498.515 96.8577L501.878 93.158ZM510.456 94.618V119H520.456V94.618H510.456ZM515.456 114H503.046V124H515.456V114ZM503.046 114C493.342 114 486.984 111.598 483.023 107.673C479.069 103.757 476.656 97.4854 476.656 87.902H466.656C466.656 99.0506 469.474 108.328 475.985 114.778C482.486 121.219 491.824 124 503.046 124V114ZM476.656 87.902V60.892H466.656V87.902H476.656ZM471.656 55.892H461.582V65.892H471.656V55.892ZM466.582 60.892V37.094H456.582V60.892H466.582ZM461.582 42.094H471.656V32.094H461.582V42.094ZM476.656 37.094V17.238H466.656V37.094H476.656ZM471.656 22.238H500.418V12.238H471.656V22.238ZM495.418 17.238V37.094H505.418V17.238H495.418ZM500.418 42.094H515.31V32.094H500.418V42.094ZM510.31 37.094V60.892H520.31V37.094H510.31ZM515.31 55.892H500.418V65.892H515.31V55.892ZM495.418 60.892V88.34H505.418V60.892H495.418ZM495.418 88.34C495.418 91.111 495.99 94.3406 498.343 96.6935L505.414 89.6225C505.623 89.8319 505.625 89.9598 505.568 89.7735C505.506 89.5676 505.418 89.1212 505.418 88.34H495.418ZM498.515 96.8577C500.957 99.0783 504.245 99.618 507.134 99.618V89.618C506.227 89.618 505.655 89.5248 505.333 89.4354C505.022 89.3489 505.069 89.3016 505.241 89.4583L498.515 96.8577ZM507.134 99.618H515.456V89.618H507.134V99.618ZM604.647 45.854L600.859 49.1175L600.886 49.1487L600.913 49.1794L604.647 45.854ZM612.969 119V124H617.969V119H612.969ZM584.353 119H579.353V124H584.353V119ZM580.703 64.104L576.974 67.4341L577.004 67.4678L577.034 67.501L580.703 64.104ZM560.847 64.104L564.516 67.501L564.547 67.4678L564.577 67.4341L560.847 64.104ZM557.197 119V124H562.197V119H557.197ZM528.581 119H523.581V124H528.581V119ZM528.581 10.96V5.96H523.581V10.96H528.581ZM557.197 10.96H562.197V5.96H557.197V10.96ZM557.197 48.774H552.197V64.9362L561.324 51.5974L557.197 48.774ZM567.417 39.868L569.734 44.2991L569.752 44.2895L569.77 44.2798L567.417 39.868ZM582.455 41.364C590.538 41.364 596.478 44.0322 600.859 49.1175L608.435 42.5904C601.915 35.0224 593.061 31.364 582.455 31.364V41.364ZM600.913 49.1794C605.436 54.2571 607.969 61.4198 607.969 71.258H617.969C617.969 59.6828 614.955 49.9095 608.381 42.5286L600.913 49.1794ZM607.969 71.258V119H617.969V71.258H607.969ZM612.969 114H584.353V124H612.969V114ZM589.353 119V75.054H579.353V119H589.353ZM589.353 75.054C589.353 69.5171 587.896 64.5129 584.372 60.707L577.034 67.501C578.377 68.9511 579.353 71.2469 579.353 75.054H589.353ZM584.433 60.7739C580.932 56.8531 576.245 55.016 570.921 55.016V65.016C573.774 65.016 575.608 65.9042 576.974 67.4341L584.433 60.7739ZM570.921 55.016C565.484 55.016 560.665 56.8005 557.118 60.7739L564.577 67.4341C565.896 65.9568 567.794 65.016 570.921 65.016V55.016ZM557.178 60.707C553.654 64.5129 552.197 69.5171 552.197 75.054H562.197C562.197 71.2469 563.173 68.9511 564.516 67.501L557.178 60.707ZM552.197 75.054V119H562.197V75.054H552.197ZM557.197 114H528.581V124H557.197V114ZM533.581 119V10.96H523.581V119H533.581ZM528.581 15.96H557.197V5.96H528.581V15.96ZM552.197 10.96V48.774H562.197V10.96H552.197ZM561.324 51.5974C563.356 48.6272 566.119 46.1888 569.734 44.2991L565.101 35.4369C560.151 38.0246 556.1 41.5235 553.071 45.9506L561.324 51.5974ZM569.77 44.2798C573.332 42.3802 577.517 41.364 582.455 41.364V31.364C576.103 31.364 570.263 32.6838 565.064 35.4562L569.77 44.2798ZM706.489 83.814V88.814H710.879L711.447 84.4607L706.489 83.814ZM652.323 83.814V78.814H646.986L647.334 84.1394L652.323 83.814ZM655.973 93.888L652.36 97.3441L652.437 97.4244L652.517 97.5012L655.973 93.888ZM674.661 90.676V85.676H671.507L670.149 88.5224L674.661 90.676ZM705.175 90.676L710.054 91.7696L711.42 85.676H705.175V90.676ZM697.729 105.86L693.874 102.676L693.867 102.684L697.729 105.86ZM684.005 116.226L686.08 120.775L684.005 116.226ZM644.001 114.912L641.602 119.299L641.616 119.307L641.631 119.314L644.001 114.912ZM629.255 100.312L624.881 102.734L624.895 102.76L624.91 102.785L629.255 100.312ZM629.255 55.782L633.613 58.2333L633.621 58.2189L633.629 58.2045L629.255 55.782ZM643.855 41.182L641.485 36.7796L641.47 36.7873L641.456 36.7951L643.855 41.182ZM687.071 41.036L689.417 36.6204V36.6204L687.071 41.036ZM701.671 55.344L697.313 57.7953L697.322 57.81L697.33 57.8247L701.671 55.344ZM677.727 69.944V74.944H682.727V69.944H677.727ZM674.223 61.768L670.931 65.5309L670.976 65.5705L671.022 65.6091L674.223 61.768ZM656.849 61.622L660.034 65.4768L660.082 65.4365L660.13 65.395L656.849 61.622ZM652.469 69.944L647.552 69.0382L646.464 74.944H652.469V69.944ZM701.927 77.098C701.927 79.1186 701.795 81.1413 701.531 83.1673L711.447 84.4607C711.767 82.0094 711.927 79.5547 711.927 77.098H701.927ZM706.489 78.814H652.323V88.814H706.489V78.814ZM647.334 84.1394C647.669 89.2758 649.11 93.9463 652.36 97.3441L659.586 90.4319C658.554 89.3523 657.562 87.3069 657.312 83.4886L647.334 84.1394ZM652.517 97.5012C655.783 100.625 659.887 102.1 664.441 102.1V92.1C662.182 92.1 660.641 91.4338 659.429 90.2748L652.517 97.5012ZM664.441 102.1C667.591 102.1 670.596 101.385 673.234 99.7272C675.873 98.0682 677.818 95.6699 679.174 92.8296L670.149 88.5224C669.46 89.9647 668.68 90.7785 667.912 91.2608C667.143 91.7441 666.061 92.1 664.441 92.1V102.1ZM674.661 95.676H705.175V85.676H674.661V95.676ZM700.296 89.5824C699.204 94.4569 697.074 98.8025 693.874 102.676L701.584 109.044C705.782 103.963 708.616 98.1858 710.054 91.7696L700.296 89.5824ZM693.867 102.684C690.785 106.433 686.839 109.438 681.93 111.677L686.08 120.775C692.267 117.953 697.471 114.047 701.591 109.036L693.867 102.684ZM681.93 111.677C677.097 113.881 671.682 115.022 665.609 115.022V125.022C672.968 125.022 679.817 123.632 686.08 120.775L681.93 111.677ZM665.609 115.022C658.254 115.022 651.883 113.477 646.372 110.51L641.631 119.314C648.773 123.16 656.807 125.022 665.609 125.022V115.022ZM646.4 110.525C641.006 107.575 636.755 103.381 633.6 97.8385L624.91 102.785C628.958 109.897 634.538 115.436 641.602 119.299L646.4 110.525ZM633.629 97.8895C630.605 92.43 628.999 85.8483 628.999 77.974H618.999C618.999 87.2304 620.897 95.5406 624.881 102.734L633.629 97.8895ZM628.999 77.974C628.999 70.0971 630.606 63.5787 633.613 58.2333L624.897 53.3307C620.896 60.444 618.999 68.7202 618.999 77.974H628.999ZM633.629 58.2045C636.683 52.6901 640.872 48.5121 646.254 45.5688L641.456 36.7951C634.379 40.6652 628.835 46.2205 624.881 53.3595L633.629 58.2045ZM646.226 45.5844C651.729 42.6212 658.145 41.072 665.609 41.072V31.072C656.721 31.072 648.635 32.9294 641.485 36.7796L646.226 45.5844ZM665.609 41.072C672.99 41.072 679.317 42.5785 684.725 45.4516L689.417 36.6204C682.366 32.8748 674.386 31.072 665.609 31.072V41.072ZM684.725 45.4516C690.098 48.3059 694.272 52.388 697.313 57.7953L706.029 52.8927C702.063 45.8413 696.503 40.3848 689.417 36.6204L684.725 45.4516ZM697.33 57.8247C700.328 63.0721 701.927 69.4357 701.927 77.098H711.927C711.927 68.019 710.022 59.8799 706.012 52.8633L697.33 57.8247ZM682.727 69.944C682.727 65.2086 681.081 60.9741 677.424 57.9269L671.022 65.6091C672.037 66.4552 672.727 67.6714 672.727 69.944H682.727ZM677.516 58.0051C674.15 55.0602 670.011 53.702 665.463 53.702V63.702C667.923 63.702 669.624 64.3878 670.931 65.5309L677.516 58.0051ZM665.463 53.702C660.983 53.702 656.877 54.9721 653.568 57.849L660.13 65.395C661.299 64.3785 662.935 63.702 665.463 63.702V53.702ZM653.665 57.7672C650.28 60.563 648.382 64.5306 647.552 69.0382L657.386 70.8498C657.919 67.96 658.941 66.3797 660.034 65.4768L653.665 57.7672ZM652.469 74.944H677.727V64.944H652.469V74.944ZM812.283 49.942L808.009 52.5369L809.47 54.942H812.283V49.942ZM805.421 43.664L803.124 48.1051L803.155 48.1208L803.185 48.1361L805.421 43.664ZM778.265 48.482L774.541 45.1458L774.522 45.1675L774.502 45.1895L778.265 48.482ZM778.703 87.61L775.056 91.0297L775.092 91.0689L775.13 91.1073L778.703 87.61ZM819.583 80.894L824.103 83.0323L827.48 75.894H819.583V80.894ZM790.821 80.894H785.821V85.894H790.821V80.894ZM790.821 60.308V55.308H785.821V60.308H790.821ZM844.257 60.308H849.257V55.308H844.257V60.308ZM844.257 88.048L848.882 89.9476L849.257 89.0348V88.048H844.257ZM834.329 103.378L830.647 99.996L830.628 100.017L830.609 100.037L834.329 103.378ZM817.977 115.204L820.051 119.754L820.079 119.741L820.106 119.728L817.977 115.204ZM767.899 113.16L765.43 117.508L765.462 117.526L765.494 117.543L767.899 113.16ZM749.503 94.618L745.097 96.9821L745.115 97.0143L745.132 97.0462L749.503 94.618ZM749.503 40.306L745.12 37.9005L745.115 37.9099L745.11 37.9193L749.503 40.306ZM767.899 21.764L770.327 26.1348L770.348 26.1234L770.368 26.1118L767.899 21.764ZM827.321 24.392L824.358 28.4196L827.321 24.392ZM843.089 49.942V54.942H849.124L848.002 49.0125L843.089 49.942ZM816.557 47.3471C814.401 43.7964 811.399 41.0625 807.657 39.1919L803.185 48.1361C805.284 49.1855 806.856 50.6369 808.009 52.5369L816.557 47.3471ZM807.718 39.2229C804.043 37.322 799.863 36.474 795.347 36.474V46.474C798.619 46.474 801.154 47.086 803.124 48.1051L807.718 39.2229ZM795.347 36.474C786.956 36.474 779.82 39.2532 774.541 45.1458L781.989 51.8182C785.081 48.3668 789.333 46.474 795.347 46.474V36.474ZM774.502 45.1895C769.42 50.998 767.133 58.5577 767.133 67.316H777.133C777.133 60.3063 778.935 55.31 782.028 51.7745L774.502 45.1895ZM767.133 67.316C767.133 76.9523 769.521 85.1258 775.056 91.0297L782.351 84.1903C779.126 80.7502 777.133 75.3944 777.133 67.316H767.133ZM775.13 91.1073C780.823 96.9237 788.76 99.472 798.121 99.472V89.472C790.547 89.472 785.539 87.4456 782.277 84.1127L775.13 91.1073ZM798.121 99.472C803.904 99.472 809.165 98.1587 813.679 95.3029C818.193 92.4468 821.631 88.256 824.103 83.0323L815.064 78.7557C813.252 82.584 810.972 85.1822 808.333 86.8521C805.693 88.5222 802.364 89.472 798.121 89.472V99.472ZM819.583 75.894H790.821V85.894H819.583V75.894ZM795.821 80.894V60.308H785.821V80.894H795.821ZM790.821 65.308H844.257V55.308H790.821V65.308ZM839.257 60.308V88.048H849.257V60.308H839.257ZM839.632 86.1484C837.639 91.0017 834.667 95.6184 830.647 99.996L838.012 106.76C842.752 101.599 846.398 95.9956 848.882 89.9476L839.632 86.1484ZM830.609 100.037C826.831 104.245 821.948 107.81 815.848 110.68L820.106 119.728C827.244 116.369 833.262 112.05 838.049 106.719L830.609 100.037ZM815.903 110.654C810.034 113.33 803.216 114.73 795.347 114.73V124.73C804.414 124.73 812.683 123.113 820.051 119.754L815.903 110.654ZM795.347 114.73C785.757 114.73 777.455 112.701 770.305 108.777L765.494 117.543C774.306 122.379 784.303 124.73 795.347 124.73V114.73ZM770.368 108.812C763.278 104.786 757.806 99.2671 753.874 92.1898L745.132 97.0462C749.961 105.737 756.753 112.58 765.43 117.508L770.368 108.812ZM753.909 92.2539C750.064 85.0885 748.079 76.8183 748.079 67.316H738.079C738.079 78.2537 740.377 88.1848 745.097 96.9821L753.909 92.2539ZM748.079 67.316C748.079 57.9185 750.061 49.7544 753.897 42.6926L745.11 37.9193C740.38 46.6256 738.079 56.4681 738.079 67.316H748.079ZM753.887 42.7115C757.818 35.5482 763.276 30.0525 770.327 26.1348L765.471 17.3932C756.755 22.2355 749.949 29.1012 745.12 37.9005L753.887 42.7115ZM770.368 26.1118C777.401 22.1181 785.628 20.048 795.201 20.048V10.048C784.14 10.048 774.166 12.4552 765.43 17.4162L770.368 26.1118ZM795.201 20.048C807.332 20.048 816.931 22.9561 824.358 28.4196L830.284 20.3644C820.775 13.3693 808.961 10.048 795.201 10.048V20.048ZM824.358 28.4196C831.758 33.8628 836.355 41.2466 838.176 50.8715L848.002 49.0125C845.735 37.0294 839.821 27.3799 830.284 20.3644L824.358 28.4196ZM843.089 44.942H812.283V54.942H843.089V44.942ZM856.935 55.782L852.449 53.5736L852.436 53.6015L852.422 53.6296L856.935 55.782ZM869.491 41.182L866.807 36.9637L866.789 36.9749L866.772 36.9862L869.491 41.182ZM901.903 39.43L899.502 43.8155L901.903 39.43ZM911.393 48.482L907.086 51.0219L916.393 66.8031V48.482H911.393ZM911.393 37.094V32.094H906.393V37.094H911.393ZM940.009 37.094H945.009V32.094H940.009V37.094ZM940.009 119V124H945.009V119H940.009ZM911.393 119H906.393V124H911.393V119ZM911.393 107.612H916.393V89.2909L907.086 105.072L911.393 107.612ZM901.757 116.664L899.399 112.255L899.377 112.267L899.356 112.279L901.757 116.664ZM869.491 114.912L866.772 119.108L866.789 119.119L866.807 119.13L869.491 114.912ZM856.935 100.312L852.41 102.438L852.429 102.479L852.449 102.52L856.935 100.312ZM907.013 65.564L903.362 68.9798L903.391 69.0107L903.42 69.0411L907.013 65.564ZM885.843 65.564L889.438 69.0391L889.467 69.0097L889.495 68.9798L885.843 65.564ZM885.843 90.53L882.138 93.8876L882.165 93.9169L882.192 93.9458L885.843 90.53ZM907.013 90.53L903.42 87.0529L903.391 87.0833L903.362 87.1142L907.013 90.53ZM857.409 77.974C857.409 70.0982 858.811 63.4635 861.448 57.9344L852.422 53.6296C849.025 60.7539 847.409 68.9138 847.409 77.974H857.409ZM861.421 57.9904C864.189 52.3692 867.804 48.2339 872.211 45.3778L866.772 36.9862C860.667 40.9434 855.911 46.5415 852.449 53.5736L861.421 57.9904ZM872.176 45.4003C876.704 42.5189 881.705 41.072 887.303 41.072V31.072C879.859 31.072 872.986 33.0317 866.807 36.9637L872.176 45.4003ZM887.303 41.072C892.285 41.072 896.29 42.0569 899.502 43.8155L904.305 35.0445C899.34 32.3258 893.612 31.072 887.303 31.072V41.072ZM899.502 43.8155C902.847 45.6477 905.332 48.0467 907.086 51.0219L915.7 45.9421C912.977 41.3253 909.135 37.6897 904.305 35.0445L899.502 43.8155ZM916.393 48.482V37.094H906.393V48.482H916.393ZM911.393 42.094H940.009V32.094H911.393V42.094ZM935.009 37.094V119H945.009V37.094H935.009ZM940.009 114H911.393V124H940.009V114ZM916.393 119V107.612H906.393V119H916.393ZM907.086 105.072C905.35 108.017 902.84 110.414 899.399 112.255L904.116 121.073C909.045 118.436 912.96 114.799 915.7 110.152L907.086 105.072ZM899.356 112.279C896.132 114.044 892.172 115.022 887.303 115.022V125.022C893.531 125.022 899.206 123.762 904.159 121.049L899.356 112.279ZM887.303 115.022C881.705 115.022 876.704 113.575 872.176 110.694L866.807 119.13C872.986 123.062 879.859 125.022 887.303 125.022V115.022ZM872.211 110.716C867.804 107.86 864.189 103.725 861.421 98.1036L852.449 102.52C855.911 109.553 860.667 115.151 866.772 119.108L872.211 110.716ZM861.461 98.1863C858.811 92.5435 857.409 85.8473 857.409 77.974H847.409C847.409 87.0367 849.025 95.2325 852.41 102.438L861.461 98.1863ZM916.393 77.974C916.393 71.7635 914.642 66.2573 910.606 62.0869L903.42 69.0411C905.224 70.9054 906.393 73.6725 906.393 77.974H916.393ZM910.665 62.1482C906.883 58.1055 902.05 56.038 896.501 56.038V66.038C899.323 66.038 901.498 66.9879 903.362 68.9798L910.665 62.1482ZM896.501 56.038C890.892 56.038 885.998 58.0793 882.192 62.1482L889.495 68.9798C891.334 67.014 893.545 66.038 896.501 66.038V56.038ZM882.248 62.0889C878.266 66.208 876.609 71.7496 876.609 77.974H886.609C886.609 73.4917 887.775 70.76 889.438 69.0391L882.248 62.0889ZM876.609 77.974C876.609 84.1477 878.288 89.6388 882.138 93.8876L889.548 87.1724C887.753 85.1918 886.609 82.3123 886.609 77.974H876.609ZM882.192 93.9458C885.998 98.0147 890.892 100.056 896.501 100.056V90.056C893.545 90.056 891.334 89.08 889.495 87.1142L882.192 93.9458ZM896.501 100.056C902.05 100.056 906.883 97.9885 910.665 93.9458L903.362 87.1142C901.498 89.1061 899.323 90.056 896.501 90.056V100.056ZM910.606 94.0071C914.658 89.8201 916.393 84.2525 916.393 77.974H906.393C906.393 82.4021 905.208 85.2053 903.42 87.0529L910.606 94.0071ZM1087.57 45.708L1083.92 49.1277L1083.94 49.1427L1083.95 49.1577L1087.57 45.708ZM1096.48 119V124H1101.48V119H1096.48ZM1067.86 119H1062.86V124H1067.86V119ZM1064.21 64.834L1060.67 68.3695L1064.21 64.834ZM1044.35 64.834L1047.89 68.3695L1044.35 64.834ZM1040.7 119V124H1045.7V119H1040.7ZM1012.09 119H1007.09V124H1012.09V119ZM1008.44 64.834L1004.83 68.2967L1004.87 68.3335L1004.9 68.3695L1008.44 64.834ZM984.932 119V124H989.932V119H984.932ZM956.316 119H951.316V124H956.316V119ZM956.316 37.094V32.094H951.316V37.094H956.316ZM984.932 37.094H989.932V32.094H984.932V37.094ZM984.932 47.898H979.932V63.3609L988.985 50.8255L984.932 47.898ZM994.714 39.576L996.993 44.0262L997.013 44.0158L997.034 44.0052L994.714 39.576ZM1024.79 40.306L1022.34 44.6639L1022.36 44.6746L1022.38 44.6852L1024.79 40.306ZM1036.03 51.402L1031.69 53.8827L1035.75 60.9869L1040.22 54.1333L1036.03 51.402ZM1047.57 40.598L1050.05 44.9392L1050.08 44.9203L1050.11 44.9009L1047.57 40.598ZM1063.33 41.364C1072.58 41.364 1079.22 44.1128 1083.92 49.1277L1091.22 42.2883C1084.24 34.8445 1074.72 31.364 1063.33 31.364V41.364ZM1083.95 49.1577C1088.79 54.2351 1091.48 61.395 1091.48 71.258H1101.48C1101.48 59.513 1098.22 49.6396 1091.19 42.2583L1083.95 49.1577ZM1091.48 71.258V119H1101.48V71.258H1091.48ZM1096.48 114H1067.86V124H1096.48V114ZM1072.86 119V75.054H1062.86V119H1072.86ZM1072.86 75.054C1072.86 69.7277 1071.35 64.9076 1067.75 61.2985L1060.67 68.3695C1061.93 69.627 1062.86 71.6203 1062.86 75.054H1072.86ZM1067.75 61.2985C1064.18 57.7315 1059.49 56.184 1054.28 56.184V66.184C1057.45 66.184 1059.37 67.0699 1060.67 68.3695L1067.75 61.2985ZM1054.28 56.184C1049.08 56.184 1044.39 57.7315 1040.82 61.2985L1047.89 68.3695C1049.19 67.0699 1051.12 66.184 1054.28 66.184V56.184ZM1040.82 61.2985C1037.21 64.9076 1035.7 69.7277 1035.7 75.054H1045.7C1045.7 71.6203 1046.63 69.627 1047.89 68.3695L1040.82 61.2985ZM1035.7 75.054V119H1045.7V75.054H1035.7ZM1040.7 114H1012.09V124H1040.7V114ZM1017.09 119V75.054H1007.09V119H1017.09ZM1017.09 75.054C1017.09 69.7277 1015.58 64.9076 1011.97 61.2985L1004.9 68.3695C1006.16 69.627 1007.09 71.6203 1007.09 75.054H1017.09ZM1012.04 61.3713C1008.55 57.7295 1003.85 56.184 998.656 56.184V66.184C1001.83 66.184 1003.65 67.0718 1004.83 68.2967L1012.04 61.3713ZM998.656 56.184C993.39 56.184 988.635 57.71 985.046 61.2985L992.117 68.3695C993.395 67.0914 995.356 66.184 998.656 66.184V56.184ZM985.046 61.2985C981.437 64.9076 979.932 69.7277 979.932 75.054H989.932C989.932 71.6203 990.86 69.627 992.117 68.3695L985.046 61.2985ZM979.932 75.054V119H989.932V75.054H979.932ZM984.932 114H956.316V124H984.932V114ZM961.316 119V37.094H951.316V119H961.316ZM956.316 42.094H984.932V32.094H956.316V42.094ZM979.932 37.094V47.898H989.932V37.094H979.932ZM988.985 50.8255C991.036 47.9864 993.679 45.7239 996.993 44.0262L992.434 35.1258C987.767 37.5161 983.889 40.8016 980.878 44.9705L988.985 50.8255ZM997.034 44.0052C1000.31 42.288 1004.17 41.364 1008.73 41.364V31.364C1002.78 31.364 997.292 32.5813 992.394 35.1468L997.034 44.0052ZM1008.73 41.364C1014.02 41.364 1018.51 42.5077 1022.34 44.6639L1027.24 35.9481C1021.73 32.8483 1015.51 31.364 1008.73 31.364V41.364ZM1022.38 44.6852C1026.33 46.8655 1029.42 49.904 1031.69 53.8827L1040.37 48.9213C1037.2 43.3613 1032.78 39.0025 1027.2 35.9268L1022.38 44.6852ZM1040.22 54.1333C1042.69 50.3392 1045.95 47.2822 1050.05 44.9392L1045.08 36.2568C1039.65 39.3644 1035.21 43.5101 1031.84 48.6707L1040.22 54.1333ZM1050.11 44.9009C1054.08 42.5515 1058.45 41.364 1063.33 41.364V31.364C1056.73 31.364 1050.59 32.9991 1045.02 36.2951L1050.11 44.9009ZM1189.97 83.814V88.814H1194.36L1194.93 84.4607L1189.97 83.814ZM1135.81 83.814V78.814H1130.47L1130.82 84.1394L1135.81 83.814ZM1139.46 93.888L1135.84 97.3441L1135.92 97.4244L1136 97.5012L1139.46 93.888ZM1158.14 90.676V85.676H1154.99L1153.63 88.5224L1158.14 90.676ZM1188.66 90.676L1193.54 91.7696L1194.9 85.676H1188.66V90.676ZM1181.21 105.86L1177.36 102.676L1177.35 102.684L1181.21 105.86ZM1167.49 116.226L1169.56 120.775L1167.49 116.226ZM1127.48 114.912L1125.08 119.299L1125.1 119.307L1125.11 119.314L1127.48 114.912ZM1112.74 100.312L1108.36 102.734L1108.38 102.76L1108.39 102.785L1112.74 100.312ZM1112.74 55.782L1117.1 58.2333L1117.1 58.2189L1117.11 58.2045L1112.74 55.782ZM1127.34 41.182L1124.97 36.7796L1124.95 36.7873L1124.94 36.7951L1127.34 41.182ZM1170.55 41.036L1172.9 36.6204V36.6204L1170.55 41.036ZM1185.15 55.344L1180.8 57.7953L1180.8 57.81L1180.81 57.8247L1185.15 55.344ZM1161.21 69.944V74.944H1166.21V69.944H1161.21ZM1157.71 61.768L1154.41 65.5309L1154.46 65.5705L1154.5 65.6091L1157.71 61.768ZM1140.33 61.622L1143.52 65.4768L1143.56 65.4365L1143.61 65.395L1140.33 61.622ZM1135.95 69.944L1131.03 69.0382L1129.95 74.944H1135.95V69.944ZM1185.41 77.098C1185.41 79.1186 1185.28 81.1413 1185.01 83.1673L1194.93 84.4607C1195.25 82.0094 1195.41 79.5547 1195.41 77.098H1185.41ZM1189.97 78.814H1135.81V88.814H1189.97V78.814ZM1130.82 84.1394C1131.15 89.2758 1132.59 93.9463 1135.84 97.3441L1143.07 90.4319C1142.04 89.3523 1141.04 87.3069 1140.79 83.4886L1130.82 84.1394ZM1136 97.5012C1139.27 100.625 1143.37 102.1 1147.92 102.1V92.1C1145.66 92.1 1144.12 91.4338 1142.91 90.2748L1136 97.5012ZM1147.92 102.1C1151.07 102.1 1154.08 101.385 1156.72 99.7272C1159.36 98.0682 1161.3 95.6699 1162.66 92.8296L1153.63 88.5224C1152.94 89.9647 1152.16 90.7785 1151.39 91.2608C1150.63 91.7441 1149.54 92.1 1147.92 92.1V102.1ZM1158.14 95.676H1188.66V85.676H1158.14V95.676ZM1183.78 89.5824C1182.69 94.4569 1180.56 98.8025 1177.36 102.676L1185.07 109.044C1189.26 103.963 1192.1 98.1858 1193.54 91.7696L1183.78 89.5824ZM1177.35 102.684C1174.27 106.433 1170.32 109.438 1165.41 111.677L1169.56 120.775C1175.75 117.953 1180.95 114.047 1185.07 109.036L1177.35 102.684ZM1165.41 111.677C1160.58 113.881 1155.16 115.022 1149.09 115.022V125.022C1156.45 125.022 1163.3 123.632 1169.56 120.775L1165.41 111.677ZM1149.09 115.022C1141.74 115.022 1135.37 113.477 1129.85 110.51L1125.11 119.314C1132.25 123.16 1140.29 125.022 1149.09 125.022V115.022ZM1129.88 110.525C1124.49 107.575 1120.24 103.381 1117.08 97.8385L1108.39 102.785C1112.44 109.897 1118.02 115.436 1125.08 119.299L1129.88 110.525ZM1117.11 97.8895C1114.09 92.43 1112.48 85.8483 1112.48 77.974H1102.48C1102.48 87.2304 1104.38 95.5406 1108.36 102.734L1117.11 97.8895ZM1112.48 77.974C1112.48 70.0971 1114.09 63.5787 1117.1 58.2333L1108.38 53.3307C1104.38 60.444 1102.48 68.7202 1102.48 77.974H1112.48ZM1117.11 58.2045C1120.17 52.6901 1124.35 48.5121 1129.74 45.5688L1124.94 36.7951C1117.86 40.6652 1112.32 46.2205 1108.36 53.3595L1117.11 58.2045ZM1129.71 45.5844C1135.21 42.6212 1141.63 41.072 1149.09 41.072V31.072C1140.2 31.072 1132.12 32.9294 1124.97 36.7796L1129.71 45.5844ZM1149.09 41.072C1156.47 41.072 1162.8 42.5785 1168.21 45.4516L1172.9 36.6204C1165.85 32.8748 1157.87 31.072 1149.09 31.072V41.072ZM1168.21 45.4516C1173.58 48.3059 1177.75 52.388 1180.8 57.7953L1189.51 52.8927C1185.55 45.8413 1179.99 40.3848 1172.9 36.6204L1168.21 45.4516ZM1180.81 57.8247C1183.81 63.0721 1185.41 69.4357 1185.41 77.098H1195.41C1195.41 68.019 1193.5 59.8799 1189.49 52.8633L1180.81 57.8247ZM1166.21 69.944C1166.21 65.2086 1164.56 60.9741 1160.91 57.9269L1154.5 65.6091C1155.52 66.4552 1156.21 67.6714 1156.21 69.944H1166.21ZM1161 58.0051C1157.63 55.0602 1153.49 53.702 1148.95 53.702V63.702C1151.41 63.702 1153.11 64.3878 1154.41 65.5309L1161 58.0051ZM1148.95 53.702C1144.47 53.702 1140.36 54.9721 1137.05 57.849L1143.61 65.395C1144.78 64.3785 1146.42 63.702 1148.95 63.702V53.702ZM1137.15 57.7672C1133.76 60.563 1131.86 64.5306 1131.03 69.0382L1140.87 70.8498C1141.4 67.96 1142.42 66.3797 1143.52 65.4768L1137.15 57.7672ZM1135.95 74.944H1161.21V64.944H1135.95V74.944ZM1232.93 94.472L1237.62 96.1923L1240.08 89.472H1232.93V94.472ZM1217.3 137.104V142.104H1220.8L1222 138.824L1217.3 137.104ZM1199.2 137.104L1194.28 136.227L1193.23 142.104H1199.2V137.104ZM1206.79 94.472V89.472H1202.6L1201.87 93.5954L1206.79 94.472ZM1228.23 92.7517L1212.61 135.384L1222 138.824L1237.62 96.1923L1228.23 92.7517ZM1217.3 132.104H1199.2V142.104H1217.3V132.104ZM1204.12 137.981L1211.71 95.3486L1201.87 93.5954L1194.28 136.227L1204.12 137.981ZM1206.79 99.472H1232.93V89.472H1206.79V99.472ZM93.714 156.07H98.714V151.07H93.714V156.07ZM93.714 178.846V183.846H98.714V178.846H93.714ZM52.542 178.846V173.846H47.542V178.846H52.542ZM52.542 196.95H47.542V201.95H52.542V196.95ZM82.91 196.95H87.91V191.95H82.91V196.95ZM82.91 218.704V223.704H87.91V218.704H82.91ZM52.542 218.704V213.704H47.542V218.704H52.542ZM52.542 259V264H57.542V259H52.542ZM23.926 259H18.926V264H23.926V259ZM23.926 156.07V151.07H18.926V156.07H23.926ZM88.714 156.07V178.846H98.714V156.07H88.714ZM93.714 173.846H52.542V183.846H93.714V173.846ZM47.542 178.846V196.95H57.542V178.846H47.542ZM52.542 201.95H82.91V191.95H52.542V201.95ZM77.91 196.95V218.704H87.91V196.95H77.91ZM82.91 213.704H52.542V223.704H82.91V213.704ZM47.542 218.704V259H57.542V218.704H47.542ZM52.542 254H23.926V264H52.542V254ZM28.926 259V156.07H18.926V259H28.926ZM23.926 161.07H93.714V151.07H23.926V161.07ZM183.584 223.814V228.814H187.974L188.542 224.461L183.584 223.814ZM129.418 223.814V218.814H124.081L124.428 224.139L129.418 223.814ZM133.068 233.888L129.455 237.344L129.531 237.424L129.612 237.501L133.068 233.888ZM151.756 230.676V225.676H148.602L147.243 228.522L151.756 230.676ZM182.27 230.676L187.149 231.77L188.515 225.676H182.27V230.676ZM174.824 245.86L170.969 242.676L170.962 242.684L174.824 245.86ZM161.1 256.226L163.175 260.775L161.1 256.226ZM121.096 254.912L118.697 259.299L118.711 259.307L118.725 259.314L121.096 254.912ZM106.35 240.312L101.976 242.734L101.99 242.76L102.005 242.785L106.35 240.312ZM106.35 195.782L110.708 198.233L110.716 198.219L110.724 198.204L106.35 195.782ZM120.95 181.182L118.579 176.78L118.565 176.787L118.551 176.795L120.95 181.182ZM164.166 181.036L166.512 176.62L164.166 181.036ZM178.766 195.344L174.408 197.795L174.416 197.81L174.425 197.825L178.766 195.344ZM154.822 209.944V214.944H159.822V209.944H154.822ZM151.318 201.768L148.025 205.531L148.071 205.571L148.117 205.609L151.318 201.768ZM133.944 201.622L137.128 205.477L137.177 205.437L137.225 205.395L133.944 201.622ZM129.564 209.944L124.647 209.038L123.559 214.944H129.564V209.944ZM179.022 217.098C179.022 219.119 178.89 221.141 178.626 223.167L188.542 224.461C188.862 222.009 189.022 219.555 189.022 217.098H179.022ZM183.584 218.814H129.418V228.814H183.584V218.814ZM124.428 224.139C124.763 229.276 126.205 233.946 129.455 237.344L136.681 230.432C135.648 229.352 134.656 227.307 134.407 223.489L124.428 224.139ZM129.612 237.501C132.877 240.625 136.982 242.1 141.536 242.1V232.1C139.277 232.1 137.736 231.434 136.524 230.275L129.612 237.501ZM141.536 242.1C144.685 242.1 147.691 241.385 150.329 239.727C152.968 238.068 154.913 235.67 156.268 232.83L147.243 228.522C146.555 229.965 145.774 230.779 145.007 231.261C144.238 231.744 143.156 232.1 141.536 232.1V242.1ZM151.756 235.676H182.27V225.676H151.756V235.676ZM177.391 229.582C176.298 234.457 174.169 238.803 170.969 242.676L178.679 249.044C182.876 243.963 185.711 238.186 187.149 231.77L177.391 229.582ZM170.962 242.684C167.88 246.433 163.934 249.438 159.025 251.677L163.175 260.775C169.362 257.953 174.565 254.047 178.686 249.036L170.962 242.684ZM159.025 251.677C154.192 253.881 148.777 255.022 142.704 255.022V265.022C150.063 265.022 156.912 263.632 163.175 260.775L159.025 251.677ZM142.704 255.022C135.348 255.022 128.978 253.477 123.466 250.51L118.725 259.314C125.867 263.16 133.902 265.022 142.704 265.022V255.022ZM123.495 250.525C118.101 247.575 113.85 243.381 110.695 237.839L102.005 242.785C106.052 249.897 111.632 255.436 118.697 259.299L123.495 250.525ZM110.724 237.889C107.7 232.43 106.094 225.848 106.094 217.974H96.0938C96.0938 227.23 97.9916 235.541 101.976 242.734L110.724 237.889ZM106.094 217.974C106.094 210.097 107.701 203.579 110.708 198.233L101.992 193.331C97.9907 200.444 96.0938 208.72 96.0938 217.974H106.094ZM110.724 198.204C113.778 192.69 117.967 188.512 123.349 185.569L118.551 176.795C111.474 180.665 105.93 186.221 101.976 193.359L110.724 198.204ZM123.32 185.584C128.823 182.621 135.24 181.072 142.704 181.072V171.072C133.816 171.072 125.73 172.929 118.579 176.78L123.32 185.584ZM142.704 181.072C150.084 181.072 156.412 182.579 161.82 185.452L166.512 176.62C159.461 172.875 151.481 171.072 142.704 171.072V181.072ZM161.82 185.452C167.193 188.306 171.366 192.388 174.408 197.795L183.124 192.893C179.157 185.841 173.598 180.385 166.512 176.62L161.82 185.452ZM174.425 197.825C177.423 203.072 179.022 209.436 179.022 217.098H189.022C189.022 208.019 187.117 199.88 183.107 192.863L174.425 197.825ZM159.822 209.944C159.822 205.209 158.175 200.974 154.519 197.927L148.117 205.609C149.132 206.455 149.822 207.671 149.822 209.944H159.822ZM154.61 198.005C151.245 195.06 147.106 193.702 142.558 193.702V203.702C145.018 203.702 146.719 204.388 148.025 205.531L154.61 198.005ZM142.558 193.702C138.078 193.702 133.971 194.972 130.663 197.849L137.225 205.395C138.394 204.379 140.03 203.702 142.558 203.702V193.702ZM130.759 197.767C127.375 200.563 125.477 204.531 124.647 209.038L134.481 210.85C135.013 207.96 136.035 206.38 137.128 205.477L130.759 197.767ZM129.564 214.944H154.822V204.944H129.564V214.944ZM273.551 223.814V228.814H277.941L278.509 224.461L273.551 223.814ZM219.385 223.814V218.814H214.048L214.395 224.139L219.385 223.814ZM223.035 233.888L219.421 237.344L219.498 237.424L219.579 237.501L223.035 233.888ZM241.723 230.676V225.676H238.569L237.21 228.522L241.723 230.676ZM272.237 230.676L277.116 231.77L278.481 225.676H272.237V230.676ZM264.791 245.86L260.936 242.676L260.929 242.684L264.791 245.86ZM251.067 256.226L253.142 260.775L251.067 256.226ZM211.063 254.912L208.664 259.299L208.678 259.307L208.692 259.314L211.063 254.912ZM196.317 240.312L191.943 242.734L191.957 242.76L191.971 242.785L196.317 240.312ZM196.317 195.782L200.675 198.233L200.683 198.219L200.691 198.204L196.317 195.782ZM210.917 181.182L208.546 176.78L208.532 176.787L208.518 176.795L210.917 181.182ZM254.133 181.036L256.478 176.62L254.133 181.036ZM268.733 195.344L264.375 197.795L264.383 197.81L264.391 197.825L268.733 195.344ZM244.789 209.944V214.944H249.789V209.944H244.789ZM241.285 201.768L237.992 205.531L238.037 205.571L238.084 205.609L241.285 201.768ZM223.911 201.622L227.095 205.477L227.144 205.437L227.192 205.395L223.911 201.622ZM219.531 209.944L214.613 209.038L213.525 214.944H219.531V209.944ZM268.989 217.098C268.989 219.119 268.857 221.141 268.593 223.167L278.509 224.461C278.828 222.009 278.989 219.555 278.989 217.098H268.989ZM273.551 218.814H219.385V228.814H273.551V218.814ZM214.395 224.139C214.73 229.276 216.171 233.946 219.421 237.344L226.648 230.432C225.615 229.352 224.623 227.307 224.374 223.489L214.395 224.139ZM219.579 237.501C222.844 240.625 226.948 242.1 231.503 242.1V232.1C229.244 232.1 227.702 231.434 226.491 230.275L219.579 237.501ZM231.503 242.1C234.652 242.1 237.658 241.385 240.296 239.727C242.935 238.068 244.879 235.67 246.235 232.83L237.21 228.522C236.522 229.965 235.741 230.779 234.974 231.261C234.205 231.744 233.123 232.1 231.503 232.1V242.1ZM241.723 235.676H272.237V225.676H241.723V235.676ZM267.358 229.582C266.265 234.457 264.135 238.803 260.936 242.676L268.645 249.044C272.843 243.963 275.677 238.186 277.116 231.77L267.358 229.582ZM260.929 242.684C257.846 246.433 253.9 249.438 248.992 251.677L253.142 260.775C259.329 257.953 264.532 254.047 268.653 249.036L260.929 242.684ZM248.992 251.677C244.159 253.881 238.744 255.022 232.671 255.022V265.022C240.029 265.022 246.879 263.632 253.142 260.775L248.992 251.677ZM232.671 255.022C225.315 255.022 218.945 253.477 213.433 250.51L208.692 259.314C215.834 263.16 223.869 265.022 232.671 265.022V255.022ZM213.462 250.525C208.067 247.575 203.817 243.381 200.662 237.839L191.971 242.785C196.019 249.897 201.599 255.436 208.664 259.299L213.462 250.525ZM200.691 237.889C197.667 232.43 196.061 225.848 196.061 217.974H186.061C186.061 227.23 187.958 235.541 191.943 242.734L200.691 237.889ZM196.061 217.974C196.061 210.097 197.668 203.579 200.675 198.233L191.959 193.331C187.958 200.444 186.061 208.72 186.061 217.974H196.061ZM200.691 198.204C203.745 192.69 207.934 188.512 213.316 185.569L208.518 176.795C201.441 180.665 195.897 186.221 191.943 193.359L200.691 198.204ZM213.287 185.584C218.79 182.621 225.207 181.072 232.671 181.072V171.072C223.783 171.072 215.697 172.929 208.546 176.78L213.287 185.584ZM232.671 181.072C240.051 181.072 246.379 182.579 251.787 185.452L256.478 176.62C249.428 172.875 241.447 171.072 232.671 171.072V181.072ZM251.787 185.452C257.16 188.306 261.333 192.388 264.375 197.795L273.091 192.893C269.124 185.841 263.564 180.385 256.478 176.62L251.787 185.452ZM264.391 197.825C267.39 203.072 268.989 209.436 268.989 217.098H278.989C278.989 208.019 277.083 199.88 273.074 192.863L264.391 197.825ZM249.789 209.944C249.789 205.209 248.142 200.974 244.486 197.927L238.084 205.609C239.099 206.455 239.789 207.671 239.789 209.944H249.789ZM244.577 198.005C241.212 195.06 237.073 193.702 232.525 193.702V203.702C234.984 203.702 236.686 204.388 237.992 205.531L244.577 198.005ZM232.525 193.702C228.045 193.702 223.938 194.972 220.63 197.849L227.192 205.395C228.361 204.379 229.996 203.702 232.525 203.702V193.702ZM220.726 197.767C217.342 200.563 215.444 204.531 214.613 209.038L224.448 210.85C224.98 207.96 226.002 206.38 227.095 205.477L220.726 197.767ZM219.531 214.944H244.789V204.944H219.531V214.944ZM314.315 150.96H319.315V145.96H314.315V150.96ZM314.315 259V264H319.315V259H314.315ZM285.699 259H280.699V264H285.699V259ZM285.699 150.96V145.96H280.699V150.96H285.699ZM309.315 150.96V259H319.315V150.96H309.315ZM314.315 254H285.699V264H314.315V254ZM290.699 259V150.96H280.699V259H290.699ZM285.699 155.96H314.315V145.96H285.699V155.96ZM406.883 234.618H411.883V229.618H406.883V234.618ZM406.883 259V264H411.883V259H406.883ZM363.083 200.892H368.083V195.892H363.083V200.892ZM353.009 200.892H348.009V205.892H353.009V200.892ZM353.009 177.094V172.094H348.009V177.094H353.009ZM363.083 177.094V182.094H368.083V177.094H363.083ZM363.083 157.238V152.238H358.083V157.238H363.083ZM391.845 157.238H396.845V152.238H391.845V157.238ZM391.845 177.094H386.845V182.094H391.845V177.094ZM406.737 177.094H411.737V172.094H406.737V177.094ZM406.737 200.892V205.892H411.737V200.892H406.737ZM391.845 200.892V195.892H386.845V200.892H391.845ZM393.305 233.158L389.769 236.694L389.853 236.778L389.941 236.858L393.305 233.158ZM401.883 234.618V259H411.883V234.618H401.883ZM406.883 254H394.473V264H406.883V254ZM394.473 254C384.769 254 378.411 251.598 374.449 247.673C370.496 243.757 368.083 237.485 368.083 227.902H358.083C358.083 239.051 360.901 248.328 367.411 254.778C373.913 261.219 383.251 264 394.473 264V254ZM368.083 227.902V200.892H358.083V227.902H368.083ZM363.083 195.892H353.009V205.892H363.083V195.892ZM358.009 200.892V177.094H348.009V200.892H358.009ZM353.009 182.094H363.083V172.094H353.009V182.094ZM368.083 177.094V157.238H358.083V177.094H368.083ZM363.083 162.238H391.845V152.238H363.083V162.238ZM386.845 157.238V177.094H396.845V157.238H386.845ZM391.845 182.094H406.737V172.094H391.845V182.094ZM401.737 177.094V200.892H411.737V177.094H401.737ZM406.737 195.892H391.845V205.892H406.737V195.892ZM386.845 200.892V228.34H396.845V200.892H386.845ZM386.845 228.34C386.845 231.111 387.416 234.341 389.769 236.694L396.84 229.622C397.05 229.832 397.051 229.96 396.995 229.773C396.933 229.568 396.845 229.121 396.845 228.34H386.845ZM389.941 236.858C392.384 239.078 395.671 239.618 398.561 239.618V229.618C397.654 229.618 397.082 229.525 396.76 229.435C396.449 229.349 396.496 229.302 396.668 229.458L389.941 236.858ZM398.561 239.618H406.883V229.618H398.561V239.618ZM496.074 185.854L492.286 189.118L492.313 189.149L492.34 189.179L496.074 185.854ZM504.396 259V264H509.396V259H504.396ZM475.78 259H470.78V264H475.78V259ZM472.13 204.104L468.4 207.434L468.43 207.468L468.461 207.501L472.13 204.104ZM452.274 204.104L455.943 207.501L455.974 207.468L456.004 207.434L452.274 204.104ZM448.624 259V264H453.624V259H448.624ZM420.008 259H415.008V264H420.008V259ZM420.008 150.96V145.96H415.008V150.96H420.008ZM448.624 150.96H453.624V145.96H448.624V150.96ZM448.624 188.774H443.624V204.936L452.751 191.597L448.624 188.774ZM458.844 179.868L461.16 184.299L461.179 184.29L461.197 184.28L458.844 179.868ZM473.882 181.364C481.965 181.364 487.905 184.032 492.286 189.118L499.862 182.59C493.342 175.022 484.487 171.364 473.882 171.364V181.364ZM492.34 189.179C496.863 194.257 499.396 201.42 499.396 211.258H509.396C509.396 199.683 506.382 189.91 499.808 182.529L492.34 189.179ZM499.396 211.258V259H509.396V211.258H499.396ZM504.396 254H475.78V264H504.396V254ZM480.78 259V215.054H470.78V259H480.78ZM480.78 215.054C480.78 209.517 479.323 204.513 475.799 200.707L468.461 207.501C469.804 208.951 470.78 211.247 470.78 215.054H480.78ZM475.86 200.774C472.359 196.853 467.672 195.016 462.348 195.016V205.016C465.2 205.016 467.034 205.904 468.4 207.434L475.86 200.774ZM462.348 195.016C456.91 195.016 452.092 196.801 448.544 200.774L456.004 207.434C457.323 205.957 459.22 205.016 462.348 205.016V195.016ZM448.605 200.707C445.081 204.513 443.624 209.517 443.624 215.054H453.624C453.624 211.247 454.6 208.951 455.943 207.501L448.605 200.707ZM443.624 215.054V259H453.624V215.054H443.624ZM448.624 254H420.008V264H448.624V254ZM425.008 259V150.96H415.008V259H425.008ZM420.008 155.96H448.624V145.96H420.008V155.96ZM443.624 150.96V188.774H453.624V150.96H443.624ZM452.751 191.597C454.783 188.627 457.545 186.189 461.16 184.299L456.528 175.437C451.577 178.025 447.527 181.523 444.497 185.951L452.751 191.597ZM461.197 184.28C464.759 182.38 468.944 181.364 473.882 181.364V171.364C467.53 171.364 461.689 172.684 456.491 175.456L461.197 184.28ZM597.916 223.814V228.814H602.306L602.874 224.461L597.916 223.814ZM543.75 223.814V218.814H538.413L538.76 224.139L543.75 223.814ZM547.4 233.888L543.787 237.344L543.863 237.424L543.944 237.501L547.4 233.888ZM566.088 230.676V225.676H562.934L561.576 228.522L566.088 230.676ZM596.602 230.676L601.481 231.77L602.847 225.676H596.602V230.676ZM589.156 245.86L585.301 242.676L585.294 242.684L589.156 245.86ZM575.432 256.226L577.507 260.775L575.432 256.226ZM535.428 254.912L533.029 259.299L533.043 259.307L533.057 259.314L535.428 254.912ZM520.682 240.312L516.308 242.734L516.322 242.76L516.337 242.785L520.682 240.312ZM520.682 195.782L525.04 198.233L525.048 198.219L525.056 198.204L520.682 195.782ZM535.282 181.182L532.911 176.78L532.897 176.787L532.883 176.795L535.282 181.182ZM578.498 181.036L580.844 176.62L578.498 181.036ZM593.098 195.344L588.74 197.795L588.748 197.81L588.757 197.825L593.098 195.344ZM569.154 209.944V214.944H574.154V209.944H569.154ZM565.65 201.768L562.357 205.531L562.403 205.571L562.449 205.609L565.65 201.768ZM548.276 201.622L551.46 205.477L551.509 205.437L551.557 205.395L548.276 201.622ZM543.896 209.944L538.979 209.038L537.891 214.944H543.896V209.944ZM593.354 217.098C593.354 219.119 593.222 221.141 592.958 223.167L602.874 224.461C603.194 222.009 603.354 219.555 603.354 217.098H593.354ZM597.916 218.814H543.75V228.814H597.916V218.814ZM538.76 224.139C539.095 229.276 540.537 233.946 543.787 237.344L551.013 230.432C549.98 229.352 548.988 227.307 548.739 223.489L538.76 224.139ZM543.944 237.501C547.209 240.625 551.314 242.1 555.868 242.1V232.1C553.609 232.1 552.068 231.434 550.856 230.275L543.944 237.501ZM555.868 242.1C559.017 242.1 562.023 241.385 564.661 239.727C567.3 238.068 569.245 235.67 570.6 232.83L561.576 228.522C560.887 229.965 560.106 230.779 559.339 231.261C558.57 231.744 557.488 232.1 555.868 232.1V242.1ZM566.088 235.676H596.602V225.676H566.088V235.676ZM591.723 229.582C590.63 234.457 588.501 238.803 585.301 242.676L593.011 249.044C597.208 243.963 600.043 238.186 601.481 231.77L591.723 229.582ZM585.294 242.684C582.212 246.433 578.266 249.438 573.357 251.677L577.507 260.775C583.694 257.953 588.897 254.047 593.018 249.036L585.294 242.684ZM573.357 251.677C568.524 253.881 563.109 255.022 557.036 255.022V265.022C564.395 265.022 571.244 263.632 577.507 260.775L573.357 251.677ZM557.036 255.022C549.68 255.022 543.31 253.477 537.798 250.51L533.057 259.314C540.199 263.16 548.234 265.022 557.036 265.022V255.022ZM537.827 250.525C532.433 247.575 528.182 243.381 525.027 237.839L516.337 242.785C520.384 249.897 525.964 255.436 533.029 259.299L537.827 250.525ZM525.056 237.889C522.032 232.43 520.426 225.848 520.426 217.974H510.426C510.426 227.23 512.324 235.541 516.308 242.734L525.056 237.889ZM520.426 217.974C520.426 210.097 522.033 203.579 525.04 198.233L516.324 193.331C512.323 200.444 510.426 208.72 510.426 217.974H520.426ZM525.056 198.204C528.11 192.69 532.299 188.512 537.681 185.569L532.883 176.795C525.806 180.665 520.262 186.221 516.308 193.359L525.056 198.204ZM537.652 185.584C543.155 182.621 549.572 181.072 557.036 181.072V171.072C548.148 171.072 540.062 172.929 532.911 176.78L537.652 185.584ZM557.036 181.072C564.416 181.072 570.744 182.579 576.152 185.452L580.844 176.62C573.793 172.875 565.813 171.072 557.036 171.072V181.072ZM576.152 185.452C581.525 188.306 585.698 192.388 588.74 197.795L597.456 192.893C593.489 185.841 587.93 180.385 580.844 176.62L576.152 185.452ZM588.757 197.825C591.755 203.072 593.354 209.436 593.354 217.098H603.354C603.354 208.019 601.449 199.88 597.439 192.863L588.757 197.825ZM574.154 209.944C574.154 205.209 572.508 200.974 568.851 197.927L562.449 205.609C563.464 206.455 564.154 207.671 564.154 209.944H574.154ZM568.942 198.005C565.577 195.06 561.438 193.702 556.89 193.702V203.702C559.35 203.702 561.051 204.388 562.357 205.531L568.942 198.005ZM556.89 193.702C552.41 193.702 548.303 194.972 544.995 197.849L551.557 205.395C552.726 204.379 554.362 203.702 556.89 203.702V193.702ZM545.091 197.767C541.707 200.563 539.809 204.531 538.979 209.038L548.813 210.85C549.345 207.96 550.367 206.38 551.46 205.477L545.091 197.767ZM543.896 214.944H569.154V204.944H543.896V214.944ZM647.354 251.554L644.362 255.56L644.378 255.572L644.395 255.584L647.354 251.554ZM634.944 227.026V222.026H629.661L629.952 227.301L634.944 227.026ZM665.458 227.026L670.442 226.622L670.069 222.026H665.458V227.026ZM668.67 234.91L665.336 238.636L668.67 234.91ZM682.248 235.494L685.285 239.466L685.302 239.453L685.318 239.441L682.248 235.494ZM680.642 222.938L683.171 218.625L680.642 222.938ZM666.918 217.39L665.337 222.133L665.359 222.141L665.381 222.148L666.918 217.39ZM650.566 210.966L648.246 215.395L648.308 215.428L648.372 215.459L650.566 210.966ZM639.762 201.768L635.739 204.737L635.779 204.791L635.82 204.844L639.762 201.768ZM640.2 168.918L644.28 171.808L644.294 171.788L644.308 171.768L640.2 168.918ZM653.924 158.114L652.001 153.499L653.924 158.114ZM702.396 162.932L699.286 166.847L699.315 166.87L699.345 166.893L702.396 162.932ZM713.93 186.438V191.438H719.176L718.924 186.198L713.93 186.438ZM682.832 186.438L677.834 186.594L677.986 191.438H682.832V186.438ZM679.912 179.43L676.59 183.167L676.64 183.211L676.691 183.255L679.912 179.43ZM667.794 178.992L671.196 182.656L667.794 178.992ZM667.94 189.504L664.404 193.04L664.522 193.157L664.647 193.267L667.94 189.504ZM673.634 193.154L671.477 197.665L671.558 197.703L671.64 197.739L673.634 193.154ZM683.562 196.95L681.887 201.661L681.913 201.67L681.939 201.679L683.562 196.95ZM699.622 203.666L697.264 208.075L697.324 208.107L697.386 208.138L699.622 203.666ZM710.572 212.864L706.584 215.88L706.625 215.934L706.668 215.987L710.572 212.864ZM710.572 244.254L706.361 241.559L706.341 241.589L706.322 241.619L710.572 244.254ZM697.286 255.788L695.11 251.286L695.095 251.293L695.08 251.301L697.286 255.788ZM676.846 255.022C665.664 255.022 656.947 252.394 650.313 247.524L644.395 255.584C653.14 262.005 664.084 265.022 676.846 265.022V255.022ZM650.346 247.548C643.98 242.793 640.449 236.061 639.936 226.751L629.952 227.301C630.607 239.21 635.35 248.829 644.362 255.56L650.346 247.548ZM634.944 232.026H665.458V222.026H634.944V232.026ZM660.474 227.43C660.823 231.731 662.172 235.805 665.336 238.636L672.004 231.184C671.469 230.705 670.677 229.524 670.442 226.622L660.474 227.43ZM665.336 238.636C668.26 241.253 671.904 242.392 675.824 242.392V232.392C673.904 232.392 672.778 231.877 672.004 231.184L665.336 238.636ZM675.824 242.392C679.258 242.392 682.552 241.556 685.285 239.466L679.211 231.522C678.634 231.963 677.646 232.392 675.824 232.392V242.392ZM685.318 239.441C688.36 237.075 689.876 233.731 689.876 229.946H679.876C679.876 230.833 679.64 231.188 679.178 231.547L685.318 239.441ZM689.876 229.946C689.876 224.98 687.367 221.085 683.171 218.625L678.113 227.251C679.562 228.101 679.876 228.878 679.876 229.946H689.876ZM683.171 218.625C679.856 216.682 674.85 214.698 668.455 212.632L665.381 222.148C671.639 224.17 675.783 225.885 678.113 227.251L683.171 218.625ZM668.499 212.647C661.897 210.446 656.673 208.384 652.76 206.473L648.372 215.459C652.829 217.636 658.507 219.857 665.337 222.133L668.499 212.647ZM652.886 206.537C649.488 204.757 646.423 202.176 643.704 198.692L635.82 204.844C639.33 209.341 643.468 212.893 648.246 215.395L652.886 206.537ZM643.785 198.799C641.562 195.787 640.236 191.611 640.236 185.854H630.236C630.236 193.14 631.928 199.573 635.739 204.737L643.785 198.799ZM640.236 185.854C640.236 180.104 641.659 175.508 644.28 171.808L636.12 166.028C632.122 171.672 630.236 178.367 630.236 185.854H640.236ZM644.308 171.768C647.024 167.854 650.807 164.83 655.847 162.729L652.001 153.499C645.361 156.265 639.995 160.443 636.092 166.068L644.308 171.768ZM655.847 162.729C660.984 160.589 666.933 159.464 673.78 159.464V149.464C665.833 149.464 658.544 150.772 652.001 153.499L655.847 162.729ZM673.78 159.464C684.984 159.464 693.312 162.1 699.286 166.847L705.506 159.017C697.27 152.473 686.52 149.464 673.78 149.464V159.464ZM699.345 166.893C705.243 171.437 708.51 177.832 708.936 186.678L718.924 186.198C718.376 174.799 713.954 165.523 705.447 158.971L699.345 166.893ZM713.93 181.438H682.832V191.438H713.93V181.438ZM687.83 186.282C687.701 182.184 686.363 178.326 683.133 175.605L676.691 183.255C677.16 183.649 677.768 184.463 677.834 186.594L687.83 186.282ZM683.234 175.693C680.388 173.163 676.835 172.094 673.05 172.094V182.094C674.911 182.094 675.932 182.582 676.59 183.167L683.234 175.693ZM673.05 172.094C669.852 172.094 666.819 173.074 664.392 175.328L671.196 182.656C671.494 182.379 671.966 182.094 673.05 182.094V172.094ZM664.392 175.328C661.762 177.77 660.75 181.048 660.75 184.394H670.75C670.75 183.068 671.101 182.744 671.196 182.656L664.392 175.328ZM660.75 184.394C660.75 187.753 662.07 190.705 664.404 193.04L671.476 185.968C670.89 185.383 670.75 184.928 670.75 184.394H660.75ZM664.647 193.267C666.607 194.982 668.906 196.435 671.477 197.665L675.791 188.643C673.884 187.731 672.387 186.751 671.232 185.741L664.647 193.267ZM671.64 197.739C674.039 198.782 677.477 200.093 681.887 201.661L685.237 192.239C680.887 190.692 677.706 189.472 675.628 188.569L671.64 197.739ZM681.939 201.679C688.309 203.866 693.394 206.005 697.264 208.075L701.98 199.257C697.479 196.85 691.857 194.511 685.185 192.221L681.939 201.679ZM697.386 208.138C700.949 209.92 704.009 212.474 706.584 215.88L714.56 209.848C711.1 205.272 706.86 201.695 701.858 199.194L697.386 208.138ZM706.668 215.987C708.933 218.819 710.244 222.61 710.244 227.756H720.244C720.244 220.833 718.44 214.696 714.476 209.741L706.668 215.987ZM710.244 227.756C710.244 232.994 708.928 237.547 706.361 241.559L714.783 246.949C718.445 241.228 720.244 234.782 720.244 227.756H710.244ZM706.322 241.619C703.869 245.576 700.212 248.82 695.11 251.286L699.462 260.29C706.04 257.11 711.24 252.665 714.821 246.889L706.322 241.619ZM695.08 251.301C690.165 253.717 684.139 255.022 676.846 255.022V265.022C685.321 265.022 692.922 263.504 699.492 260.275L695.08 251.301ZM859.801 185.708L856.153 189.128L856.168 189.143L856.182 189.158L859.801 185.708ZM868.707 259V264H873.707V259H868.707ZM840.091 259H835.091V264H840.091V259ZM836.441 204.834L832.906 208.37V208.37L836.441 204.834ZM816.585 204.834L820.121 208.37V208.37L816.585 204.834ZM812.935 259V264H817.935V259H812.935ZM784.319 259H779.319V264H784.319V259ZM780.669 204.834L777.062 208.297L777.097 208.333L777.134 208.37L780.669 204.834ZM757.163 259V264H762.163V259H757.163ZM728.547 259H723.547V264H728.547V259ZM728.547 177.094V172.094H723.547V177.094H728.547ZM757.163 177.094H762.163V172.094H757.163V177.094ZM757.163 187.898H752.163V203.361L761.216 190.825L757.163 187.898ZM766.945 179.576L769.224 184.026L769.245 184.016L769.265 184.005L766.945 179.576ZM797.021 180.306L794.57 184.664L794.589 184.675L794.608 184.685L797.021 180.306ZM808.263 191.402L803.922 193.883L807.981 200.987L812.451 194.133L808.263 191.402ZM819.797 180.598L822.278 184.939L822.311 184.92L822.344 184.901L819.797 180.598ZM835.565 181.364C844.811 181.364 851.452 184.113 856.153 189.128L863.449 182.288C856.47 174.844 846.954 171.364 835.565 171.364V181.364ZM856.182 189.158C861.021 194.235 863.707 201.395 863.707 211.258H873.707C873.707 199.513 870.456 189.64 863.42 182.258L856.182 189.158ZM863.707 211.258V259H873.707V211.258H863.707ZM868.707 254H840.091V264H868.707V254ZM845.091 259V215.054H835.091V259H845.091ZM845.091 215.054C845.091 209.728 843.586 204.908 839.977 201.298L832.906 208.37C834.163 209.627 835.091 211.62 835.091 215.054H845.091ZM839.977 201.298C836.41 197.731 831.719 196.184 826.513 196.184V206.184C829.678 206.184 831.606 207.07 832.906 208.37L839.977 201.298ZM826.513 196.184C821.307 196.184 816.617 197.731 813.05 201.298L820.121 208.37C821.42 207.07 823.348 206.184 826.513 206.184V196.184ZM813.05 201.298C809.44 204.908 807.935 209.728 807.935 215.054H817.935C817.935 211.62 818.863 209.627 820.121 208.37L813.05 201.298ZM807.935 215.054V259H817.935V215.054H807.935ZM812.935 254H784.319V264H812.935V254ZM789.319 259V215.054H779.319V259H789.319ZM789.319 215.054C789.319 209.728 787.814 204.908 784.205 201.298L777.134 208.37C778.391 209.627 779.319 211.62 779.319 215.054H789.319ZM784.276 201.371C780.78 197.73 776.085 196.184 770.887 196.184V206.184C774.06 206.184 775.886 207.072 777.062 208.297L784.276 201.371ZM770.887 196.184C765.621 196.184 760.866 197.71 757.278 201.298L764.349 208.37C765.627 207.091 767.588 206.184 770.887 206.184V196.184ZM757.278 201.298C753.668 204.908 752.163 209.728 752.163 215.054H762.163C762.163 211.62 763.091 209.627 764.349 208.37L757.278 201.298ZM752.163 215.054V259H762.163V215.054H752.163ZM757.163 254H728.547V264H757.163V254ZM733.547 259V177.094H723.547V259H733.547ZM728.547 182.094H757.163V172.094H728.547V182.094ZM752.163 177.094V187.898H762.163V177.094H752.163ZM761.216 190.825C763.267 187.986 765.91 185.724 769.224 184.026L764.666 175.126C759.999 177.516 756.121 180.802 753.11 184.971L761.216 190.825ZM769.265 184.005C772.543 182.288 776.4 181.364 780.961 181.364V171.364C775.01 171.364 769.523 172.581 764.625 175.147L769.265 184.005ZM780.961 181.364C786.247 181.364 790.737 182.508 794.57 184.664L799.472 175.948C793.962 172.848 787.745 171.364 780.961 171.364V181.364ZM794.608 184.685C798.565 186.866 801.648 189.904 803.922 193.883L812.604 188.921C809.427 183.361 805.016 179.002 799.434 175.927L794.608 184.685ZM812.451 194.133C814.926 190.339 818.177 187.282 822.278 184.939L817.316 176.257C811.878 179.364 807.441 183.51 804.075 188.671L812.451 194.133ZM822.344 184.901C826.313 182.552 830.685 181.364 835.565 181.364V171.364C828.96 171.364 822.82 172.999 817.25 176.295L822.344 184.901ZM884.239 195.782L879.753 193.574L879.739 193.602L879.726 193.63L884.239 195.782ZM896.795 181.182L894.111 176.964L894.093 176.975L894.076 176.986L896.795 181.182ZM929.207 179.43L926.805 183.815L929.207 179.43ZM938.697 188.482L934.39 191.022L943.697 206.803V188.482H938.697ZM938.697 177.094V172.094H933.697V177.094H938.697ZM967.313 177.094H972.313V172.094H967.313V177.094ZM967.313 259V264H972.313V259H967.313ZM938.697 259H933.697V264H938.697V259ZM938.697 247.612H943.697V229.291L934.39 245.072L938.697 247.612ZM929.061 256.664L926.703 252.255L926.681 252.267L926.659 252.279L929.061 256.664ZM896.795 254.912L894.076 259.108L894.093 259.119L894.111 259.13L896.795 254.912ZM884.239 240.312L879.713 242.438L879.733 242.479L879.753 242.52L884.239 240.312ZM934.317 205.564L930.666 208.98L930.695 209.011L930.724 209.041L934.317 205.564ZM913.147 205.564L916.742 209.039L916.77 209.01L916.798 208.98L913.147 205.564ZM913.147 230.53L909.442 233.888L909.469 233.917L909.496 233.946L913.147 230.53ZM934.317 230.53L930.724 227.053L930.695 227.083L930.666 227.114L934.317 230.53ZM884.713 217.974C884.713 210.098 886.115 203.463 888.752 197.934L879.726 193.63C876.328 200.754 874.713 208.914 874.713 217.974H884.713ZM888.725 197.99C891.492 192.369 895.108 188.234 899.514 185.378L894.076 176.986C887.97 180.943 883.215 186.541 879.753 193.574L888.725 197.99ZM899.479 185.4C904.007 182.519 909.009 181.072 914.607 181.072V171.072C907.163 171.072 900.289 173.032 894.111 176.964L899.479 185.4ZM914.607 181.072C919.589 181.072 923.594 182.057 926.805 183.815L931.609 175.045C926.644 172.326 920.916 171.072 914.607 171.072V181.072ZM926.805 183.815C930.151 185.648 932.635 188.047 934.39 191.022L943.004 185.942C940.281 181.325 936.439 177.69 931.609 175.045L926.805 183.815ZM943.697 188.482V177.094H933.697V188.482H943.697ZM938.697 182.094H967.313V172.094H938.697V182.094ZM962.313 177.094V259H972.313V177.094H962.313ZM967.313 254H938.697V264H967.313V254ZM943.697 259V247.612H933.697V259H943.697ZM934.39 245.072C932.653 248.017 930.144 250.414 926.703 252.255L931.419 261.073C936.349 258.436 940.263 254.799 943.004 250.152L934.39 245.072ZM926.659 252.279C923.436 254.044 919.475 255.022 914.607 255.022V265.022C920.835 265.022 926.51 263.762 931.463 261.049L926.659 252.279ZM914.607 255.022C909.009 255.022 904.007 253.575 899.479 250.694L894.111 259.13C900.289 263.062 907.163 265.022 914.607 265.022V255.022ZM899.514 250.716C895.108 247.86 891.492 243.725 888.725 238.104L879.753 242.52C883.215 249.553 887.97 255.151 894.076 259.108L899.514 250.716ZM888.765 238.186C886.114 232.544 884.713 225.847 884.713 217.974H874.713C874.713 227.037 876.329 235.232 879.713 242.438L888.765 238.186ZM943.697 217.974C943.697 211.763 941.946 206.257 937.91 202.087L930.724 209.041C932.528 210.905 933.697 213.673 933.697 217.974H943.697ZM937.968 202.148C934.186 198.105 929.354 196.038 923.805 196.038V206.038C926.627 206.038 928.802 206.988 930.666 208.98L937.968 202.148ZM923.805 196.038C918.195 196.038 913.302 198.079 909.496 202.148L916.798 208.98C918.637 207.014 920.849 206.038 923.805 206.038V196.038ZM909.552 202.089C905.57 206.208 903.913 211.75 903.913 217.974H913.913C913.913 213.492 915.078 210.76 916.742 209.039L909.552 202.089ZM903.913 217.974C903.913 224.148 905.592 229.639 909.442 233.888L916.852 227.172C915.057 225.192 913.913 222.312 913.913 217.974H903.913ZM909.496 233.946C913.302 238.015 918.195 240.056 923.805 240.056V230.056C920.849 230.056 918.637 229.08 916.798 227.114L909.496 233.946ZM923.805 240.056C929.354 240.056 934.186 237.989 937.968 233.946L930.666 227.114C928.802 229.106 926.627 230.056 923.805 230.056V240.056ZM937.91 234.007C941.962 229.82 943.697 224.253 943.697 217.974H933.697C933.697 222.402 932.512 225.205 930.724 227.053L937.91 234.007ZM998.657 256.372L996.641 260.947L996.688 260.968L996.734 260.987L998.657 256.372ZM984.933 246.152L980.944 249.166L980.982 249.216L981.02 249.265L984.933 246.152ZM979.385 231.406V226.406H974.016L974.398 231.762L979.385 231.406ZM1007.13 231.406L1012.07 230.673L1011.44 226.406H1007.13V231.406ZM1022.6 229.946L1024.59 225.361L1022.6 229.946ZM1011.51 226.734L1012.61 221.857L1012.55 221.843L1012.49 221.831L1011.51 226.734ZM996.905 222.792L995.15 227.474L996.905 222.792ZM986.685 215.638L982.881 218.883L982.908 218.915L982.936 218.946L986.685 215.638ZM986.393 189.066L990.538 191.863L990.554 191.84L990.569 191.816L986.393 189.066ZM997.927 179.576L995.865 175.021L995.848 175.029L995.832 175.036L997.927 179.576ZM1041.73 183.956L1038.47 187.752L1041.73 183.956ZM1052.39 204.688V209.688H1057.99L1057.35 204.123L1052.39 204.688ZM1026.54 204.688L1021.63 205.598L1022.38 209.688H1026.54V204.688ZM1023.04 198.702L1019.84 202.543L1019.95 202.639L1020.07 202.727L1023.04 198.702ZM1010.48 197.826L1007.64 193.715L1007.56 193.769L1007.48 193.826L1010.48 197.826ZM1012.09 206.002L1009.93 210.513L1010.01 210.551L1010.1 210.587L1012.09 206.002ZM1022.89 209.068L1021.84 213.956L1021.85 213.958L1022.89 209.068ZM1037.64 213.302L1035.78 217.944L1035.8 217.952L1035.82 217.96L1037.64 213.302ZM1048.01 220.894L1044.16 224.095L1044.21 224.153L1044.26 224.209L1048.01 220.894ZM1048.3 247.758L1044.29 244.774L1044.26 244.808L1044.24 244.842L1048.3 247.758ZM1036.47 256.81L1038.42 261.415L1038.44 261.406L1038.46 261.397L1036.47 256.81ZM1018.51 255.022C1011.67 255.022 1005.72 253.897 1000.58 251.757L996.734 260.987C1003.28 263.714 1010.57 265.022 1018.51 265.022V255.022ZM1000.67 251.797C995.563 249.544 991.679 246.6 988.846 243.039L981.02 249.265C985.001 254.269 990.267 258.138 996.641 260.947L1000.67 251.797ZM988.923 243.138C986.193 239.525 984.693 235.532 984.373 231.05L974.398 231.762C974.857 238.181 977.055 244.019 980.944 249.166L988.923 243.138ZM979.385 236.406H1007.13V226.406H979.385V236.406ZM1002.18 232.139C1002.75 236.023 1004.65 239.308 1007.87 241.607L1013.68 233.469C1012.81 232.848 1012.27 232.045 1012.07 230.673L1002.18 232.139ZM1007.87 241.607C1010.92 243.786 1014.52 244.728 1018.37 244.728V234.728C1016.18 234.728 1014.72 234.21 1013.68 233.469L1007.87 241.607ZM1018.37 244.728C1021.35 244.728 1024.33 244.113 1026.82 242.337L1021.01 234.199C1020.77 234.37 1020.06 234.728 1018.37 234.728V244.728ZM1026.82 242.337C1029.38 240.508 1030.96 237.782 1030.96 234.472H1020.96C1020.96 234.495 1020.96 234.47 1020.97 234.412C1020.99 234.352 1021.01 234.284 1021.05 234.219C1021.08 234.154 1021.11 234.119 1021.12 234.112C1021.12 234.107 1021.09 234.139 1021.01 234.199L1026.82 242.337ZM1030.96 234.472C1030.96 232.477 1030.39 230.521 1029.14 228.828C1027.92 227.191 1026.28 226.094 1024.59 225.361L1020.61 234.531C1021.16 234.771 1021.2 234.916 1021.1 234.787C1021.06 234.721 1021.01 234.633 1020.98 234.542C1020.95 234.455 1020.96 234.421 1020.96 234.472H1030.96ZM1024.59 225.361C1021.9 224.187 1017.81 223.034 1012.61 221.857L1010.4 231.611C1015.52 232.77 1018.83 233.758 1020.61 234.531L1024.59 225.361ZM1012.49 221.831C1006.81 220.695 1002.22 219.445 998.661 218.11L995.15 227.474C999.377 229.059 1004.52 230.437 1010.52 231.637L1012.49 221.831ZM998.661 218.11C995.582 216.956 992.847 215.064 990.435 212.33L982.936 218.946C986.364 222.831 990.442 225.708 995.15 227.474L998.661 218.11ZM990.49 212.393C988.644 210.23 987.451 207.023 987.451 202.206H977.451C977.451 208.68 979.081 214.427 982.881 218.883L990.49 212.393ZM987.451 202.206C987.451 198.298 988.488 194.899 990.538 191.863L982.249 186.269C979.042 191.019 977.451 196.381 977.451 202.206H987.451ZM990.569 191.816C992.604 188.726 995.665 186.127 1000.02 184.116L995.832 175.036C990.067 177.697 985.439 181.424 982.218 186.316L990.569 191.816ZM999.99 184.131C1004.35 182.157 1009.79 181.072 1016.47 181.072V171.072C1008.74 171.072 1001.82 172.323 995.865 175.021L999.99 184.131ZM1016.47 181.072C1026.38 181.072 1033.51 183.496 1038.47 187.752L1044.98 180.16C1037.68 173.904 1027.98 171.072 1016.47 171.072V181.072ZM1038.47 187.752C1043.58 192.127 1046.58 197.85 1047.42 205.253L1057.35 204.123C1056.25 194.396 1052.14 186.297 1044.98 180.16L1038.47 187.752ZM1052.39 199.688H1026.54V209.688H1052.39V199.688ZM1031.46 203.778C1030.78 200.12 1029.04 196.915 1026.01 194.677L1020.07 202.727C1020.73 203.215 1021.33 204 1021.63 205.598L1031.46 203.778ZM1026.24 194.861C1023.33 192.44 1019.69 191.512 1015.89 191.512V201.512C1018.11 201.512 1019.24 202.044 1019.84 202.543L1026.24 194.861ZM1015.89 191.512C1013.03 191.512 1010.07 192.031 1007.64 193.715L1013.33 201.937C1013.43 201.869 1014.07 201.512 1015.89 201.512V191.512ZM1007.48 193.826C1004.96 195.717 1003.73 198.467 1003.73 201.476H1013.73C1013.73 201.331 1013.76 201.396 1013.68 201.559C1013.64 201.635 1013.6 201.702 1013.55 201.757C1013.51 201.809 1013.48 201.83 1013.48 201.826L1007.48 193.826ZM1003.73 201.476C1003.73 205.91 1006.53 208.885 1009.93 210.513L1014.25 201.491C1013.64 201.199 1013.53 201.012 1013.59 201.088C1013.62 201.132 1013.66 201.211 1013.7 201.313C1013.73 201.413 1013.73 201.477 1013.73 201.476H1003.73ZM1010.1 210.587C1012.81 211.769 1016.82 212.873 1021.84 213.956L1023.95 204.18C1019.04 203.122 1015.84 202.182 1014.08 201.417L1010.1 210.587ZM1021.85 213.958C1027.62 215.188 1032.24 216.528 1035.78 217.944L1039.5 208.66C1035.25 206.961 1030.04 205.479 1023.94 204.178L1021.85 213.958ZM1035.82 217.96C1038.97 219.19 1041.75 221.196 1044.16 224.095L1051.85 217.693C1048.42 213.584 1044.29 210.528 1039.46 208.644L1035.82 217.96ZM1044.26 224.209C1046.25 226.452 1047.53 229.814 1047.53 234.91H1057.53C1057.53 228.132 1055.8 222.149 1051.75 217.579L1044.26 224.209ZM1047.53 234.91C1047.53 238.614 1046.46 241.849 1044.29 244.774L1052.31 250.742C1055.78 246.075 1057.53 240.745 1057.53 234.91H1047.53ZM1044.24 244.842C1042.14 247.768 1038.98 250.271 1034.48 252.223L1038.46 261.397C1044.28 258.872 1049.01 255.34 1052.36 250.674L1044.24 244.842ZM1034.52 252.205C1030.21 254.028 1024.92 255.022 1018.51 255.022V265.022C1025.93 265.022 1032.61 263.875 1038.42 261.415L1034.52 252.205ZM1142.67 185.854L1138.88 189.118L1138.9 189.149L1138.93 189.179L1142.67 185.854ZM1150.99 259V264H1155.99V259H1150.99ZM1122.37 259H1117.37V264H1122.37V259ZM1118.72 204.104L1114.99 207.434L1115.02 207.468L1115.05 207.501L1118.72 204.104ZM1098.87 204.104L1102.53 207.501L1102.57 207.468L1102.6 207.434L1098.87 204.104ZM1095.22 259V264H1100.22V259H1095.22ZM1066.6 259H1061.6V264H1066.6V259ZM1066.6 150.96V145.96H1061.6V150.96H1066.6ZM1095.22 150.96H1100.22V145.96H1095.22V150.96ZM1095.22 188.774H1090.22V204.936L1099.34 191.597L1095.22 188.774ZM1105.44 179.868L1107.75 184.299L1107.77 184.29L1107.79 184.28L1105.44 179.868ZM1120.47 181.364C1128.56 181.364 1134.5 184.032 1138.88 189.118L1146.45 182.59C1139.93 175.022 1131.08 171.364 1120.47 171.364V181.364ZM1138.93 189.179C1143.45 194.257 1145.99 201.42 1145.99 211.258H1155.99C1155.99 199.683 1152.97 189.91 1146.4 182.529L1138.93 189.179ZM1145.99 211.258V259H1155.99V211.258H1145.99ZM1150.99 254H1122.37V264H1150.99V254ZM1127.37 259V215.054H1117.37V259H1127.37ZM1127.37 215.054C1127.37 209.517 1125.91 204.513 1122.39 200.707L1115.05 207.501C1116.4 208.951 1117.37 211.247 1117.37 215.054H1127.37ZM1122.45 200.774C1118.95 196.853 1114.26 195.016 1108.94 195.016V205.016C1111.79 205.016 1113.63 205.904 1114.99 207.434L1122.45 200.774ZM1108.94 195.016C1103.5 195.016 1098.68 196.801 1095.14 200.774L1102.6 207.434C1103.91 205.957 1105.81 205.016 1108.94 205.016V195.016ZM1095.2 200.707C1091.67 204.513 1090.22 209.517 1090.22 215.054H1100.22C1100.22 211.247 1101.19 208.951 1102.53 207.501L1095.2 200.707ZM1090.22 215.054V259H1100.22V215.054H1090.22ZM1095.22 254H1066.6V264H1095.22V254ZM1071.6 259V150.96H1061.6V259H1071.6ZM1066.6 155.96H1095.22V145.96H1066.6V155.96ZM1090.22 150.96V188.774H1100.22V150.96H1090.22ZM1099.34 191.597C1101.37 188.627 1104.14 186.189 1107.75 184.299L1103.12 175.437C1098.17 178.025 1094.12 181.523 1091.09 185.951L1099.34 191.597ZM1107.79 184.28C1111.35 182.38 1115.54 181.364 1120.47 181.364V171.364C1114.12 171.364 1108.28 172.684 1103.08 175.456L1107.79 184.28ZM1204.94 150.814L1209.94 151.055L1210.19 145.814H1204.94V150.814ZM1201.58 220.456V225.456H1206.35L1206.58 220.697L1201.58 220.456ZM1177.2 220.456L1172.21 220.697L1172.44 225.456H1177.2V220.456ZM1173.84 150.814V145.814H1168.6L1168.85 151.055L1173.84 150.814ZM1177.2 256.08L1173.79 259.731L1173.85 259.788L1173.91 259.843L1177.2 256.08ZM1177.2 234.764L1173.84 231.059L1173.81 231.086L1173.79 231.113L1177.2 234.764ZM1201.44 234.764L1198.02 238.415L1198.05 238.442L1198.08 238.469L1201.44 234.764ZM1201.44 255.934L1198.08 252.229L1198.05 252.256L1198.02 252.283L1201.44 255.934ZM1199.95 150.573L1196.59 220.215L1206.58 220.697L1209.94 151.055L1199.95 150.573ZM1201.58 215.456H1177.2V225.456H1201.58V215.456ZM1182.2 220.215L1178.84 150.573L1168.85 151.055L1172.21 220.697L1182.2 220.215ZM1173.84 155.814H1204.94V145.814H1173.84V155.814ZM1189.47 255.168C1185.33 255.168 1182.51 254.077 1180.49 252.317L1173.91 259.843C1178.13 263.533 1183.47 265.168 1189.47 265.168V255.168ZM1180.62 252.429C1178.65 250.59 1177.68 248.378 1177.68 245.422H1167.68C1167.68 251.032 1169.72 255.925 1173.79 259.731L1180.62 252.429ZM1177.68 245.422C1177.68 242.466 1178.65 240.254 1180.62 238.415L1173.79 231.113C1169.72 234.919 1167.68 239.812 1167.68 245.422H1177.68ZM1180.56 238.469C1182.57 236.643 1185.38 235.53 1189.47 235.53V225.53C1183.43 225.53 1178.06 227.24 1173.84 231.059L1180.56 238.469ZM1189.47 235.53C1193.43 235.53 1196.11 236.628 1198.02 238.415L1204.85 231.113C1200.73 227.255 1195.43 225.53 1189.47 225.53V235.53ZM1198.08 238.469C1200.13 240.324 1201.11 242.52 1201.11 245.422H1211.11C1211.11 239.758 1208.98 234.85 1204.8 231.059L1198.08 238.469ZM1201.11 245.422C1201.11 248.189 1200.15 250.35 1198.08 252.229L1204.8 259.639C1208.95 255.873 1211.11 251.026 1211.11 245.422H1201.11ZM1198.02 252.283C1196.11 254.07 1193.43 255.168 1189.47 255.168V265.168C1195.43 265.168 1200.73 263.443 1204.85 259.585L1198.02 252.283Z" fill="black"/>
</g>
<defs>
<filter id="filter0_d_2_35" x="0.817505" y="0.0100098" width="1243.11" height="276.158" filterUnits="userSpaceOnUse" color-interpolation-filters="sRGB">
<feFlood flood-opacity="0" result="BackgroundImageFix"/>
<feColorMatrix in="SourceAlpha" type="matrix" values="0 0 0 0 0 0 0 0 0 0 0 0 0 0 0 0 0 0 127 0" result="hardAlpha"/>
<feOffset dx="7" dy="12"/>
<feGaussianBlur stdDeviation="2"/>
<feComposite in2="hardAlpha" operator="out"/>
<feColorMatrix type="matrix" values="0 0 0 0 0 0 0 0 0 0 0 0 0 0 0 0 0 0 0.25 0"/>
<feBlend mode="normal" in2="BackgroundImageFix" result="effect1_dropShadow_2_35"/>
<feBlend mode="normal" in="SourceGraphic" in2="effect1_dropShadow_2_35" result="shape"/>
</filter>
</defs>
</svg>
